mtllib Prop_Raceline_Curve_Gentle_Outer.mtl
o object1
g object1
v 0.43290849 0.00329977 0.32964047
v 0.43177813 0.00329977 0.32806305
v 0.42320508 0.00000000 0.33301270
v 0.42546581 -0.00000000 0.33616755
v 0.42829858 -0.00000000 0.33882071
v 0.43432488 0.00329977 0.33096706
v 0.43159449 -0.00000000 0.34087024
v 0.43597283 0.00329977 0.33199182
v 0.43522692 0.00000000 0.34223738
v 0.43778905 0.00329977 0.33267539
v 0.43905627 0.00000000 0.34286961
v 0.43970372 0.00329977 0.33299151
v 0.44293537 0.00000000 0.34274263
v 0.44164327 0.00329977 0.33292801
v 0.44671520 0.00000000 0.34186130
v 0.44353319 0.00329977 0.33248735
v 0.45025048 0.00000000 0.34025949
v 0.44530082 0.00329977 0.33168645
v 0.45340532 0.00000000 0.33799876
v 0.44687825 0.00329977 0.33055608
v 0.45605849 0.00000000 0.33516599
v 0.44820483 0.00329977 0.32913970
v 0.45810801 0.00000000 0.33187008
v 0.44922959 0.00329977 0.32749174
v 0.45947516 0.00000000 0.32823766
v 0.44991316 0.00329977 0.32567553
v 0.46010739 0.00000000 0.32440831
v 0.45022928 0.00329977 0.32376085
v 0.45998040 0.00000000 0.32052920
v 0.45016579 0.00329977 0.32182130
v 0.45909908 0.00000000 0.31674937
v 0.44972512 0.00329977 0.31993139
v 0.45749727 -0.00000000 0.31321410
v 0.44892422 0.00329977 0.31816375
v 0.40263030 0.00000000 0.29886696
v 0.41101229 0.00329977 0.29360023
v 0.42777626 0.00329977 0.28306676
v 0.38161715 0.00329977 0.21536361
v 0.36568723 0.00329977 0.22712040
v 0.38958211 -0.00000000 0.20948521
v 0.43615824 -0.00000000 0.27780003
v 0.33052828 0.00329977 0.15130004
v 0.33803168 -0.00000000 0.14484286
v 0.27479426 0.00329977 0.09123290
v 0.28179413 -0.00000000 0.08423304
v 0.26079451 0.00329977 0.10523261
v 0.31552148 0.00329977 0.16421440
v 0.25379464 0.00000000 0.11223246
v 0.30801808 0.00000000 0.17067158
v 0.35772226 0.00000000 0.23299880
v 0.19535560 0.00000000 0.05800885
v 0.20181279 0.00329977 0.05050546
v 0.13302782 0.00000000 0.00830404
v 0.13890623 0.00329977 0.00033909
v 0.15066305 0.00329977 -0.01559082
v 0.21472718 0.00329977 0.03549869
v 0.15654146 -0.00000000 -0.02355577
v 0.22118438 -0.00000000 0.02799530
v 0.08296010 0.00329977 -0.06174994
v 0.08822685 -0.00000000 -0.07013192
v 0.01199696 0.00329977 -0.10272053
v 0.01662260 -0.00000000 -0.11147265
v 0.00274570 0.00329977 -0.08521628
v 0.07242661 0.00329977 -0.04498598
v -0.00187993 0.00000000 -0.07646415
v 0.06715986 0.00000000 -0.03660401
v -0.07370542 0.00000000 -0.11105345
v -0.06974678 0.00329977 -0.12012678
v -0.14791493 0.00000000 -0.14017849
v -0.14464541 0.00329977 -0.14952227
v -0.13810636 0.00329977 -0.16820985
v -0.06182948 0.00329977 -0.13827344
v -0.13483683 -0.00000000 -0.17755364
v -0.05787083 -0.00000000 -0.14734677
v -0.21640713 0.00329977 -0.19236236
v -0.21384502 -0.00000000 -0.20192435
v -0.29629382 0.00329977 -0.21059587
v -0.29445344 -0.00000000 -0.22032259
v -0.29997458 0.00329977 -0.19114242
v -0.22153137 0.00329977 -0.17323837
v -0.30181496 0.00000000 -0.18141569
v -0.22409348 0.00000000 -0.16367638
v -0.38064401 0.00000000 -0.19329717
v -0.37953565 0.00329977 -0.20313423
v -0.46014153 0.00000000 -0.19925459
v -0.45977140 0.00329977 -0.20914697
v -0.45903113 0.00329977 -0.22893173
v -0.37731893 0.00329977 -0.22280834
v -0.45866100 -0.00000000 -0.23882411
v -0.37621057 -0.00000000 -0.23264540
v -0.50000000 0.00329977 -0.22969790
v -0.50000000 -0.00000000 -0.23959721
v -0.50193132 0.00329977 -0.21008953
v -0.50000000 0.00329977 -0.20989930
v -0.50000000 0.00000000 -0.20000000
v -0.50386264 -0.00000000 -0.20038045
v -0.50757683 -0.00000000 -0.20150717
v -0.50378841 0.00329977 -0.21065289
v -0.51099979 -0.00000000 -0.20333685
v -0.50549990 0.00329977 -0.21156773
v -0.51399973 0.00000000 -0.20579888
v -0.50699986 0.00329977 -0.21279874
v -0.51646222 0.00000000 -0.20879951
v -0.50823111 0.00329977 -0.21429906
v -0.51829175 0.00000000 -0.21222255
v -0.50914588 0.00329977 -0.21601058
v -0.51941832 0.00000000 -0.21593678
v -0.50970916 0.00329977 -0.21786769
v -0.51979860 0.00000000 -0.21979860
v -0.50989930 0.00329977 -0.21979860
v -0.51941799 0.00000000 -0.22366207
v -0.50970899 0.00329977 -0.22173034
v -0.51829111 0.00000000 -0.22737621
v -0.50914555 0.00329977 -0.22358741
v -0.51646129 0.00000000 -0.23079909
v -0.50823064 0.00329977 -0.22529885
v -0.51399973 0.00000000 -0.23379833
v -0.50699986 0.00329977 -0.22679847
v -0.51099839 0.00000000 -0.23626129
v -0.50549920 0.00329977 -0.22802995
v -0.50757527 0.00000000 -0.23809067
v -0.50378764 0.00329977 -0.22894464
v -0.50386100 0.00000000 -0.23921708
v -0.50193050 0.00329977 -0.22950784
v -0.50591219 0.00329977 -0.21979879
v 0.44330733 0.00329977 0.32823361
vt 0.06691373 1.00000000
vt 0.00000000 1.00000000
vt 0.00000000 0.00000000
vt 0.06691373 0.00000000
vt 0.12994545 0.00000000
vt 0.12994545 1.00000000
vt 0.19055502 0.00000000
vt 0.19055502 1.00000000
vt 0.25000000 0.00000000
vt 0.25000000 1.00000000
vt 0.30944498 0.00000000
vt 0.30944498 1.00000000
vt 0.37005455 0.00000000
vt 0.37005455 1.00000000
vt 0.43308627 0.00000000
vt 0.43308627 1.00000000
vt 0.50000000 0.00000000
vt 0.50000000 1.00000000
vt 0.56691373 0.00000000
vt 0.56691373 1.00000000
vt 0.62994545 0.00000000
vt 0.62994545 1.00000000
vt 0.69055502 0.00000000
vt 0.69055502 1.00000000
vt 0.75000000 0.00000000
vt 0.75000000 1.00000000
vt 0.80944498 0.00000000
vt 0.80944498 1.00000000
vt 0.87005455 0.00000000
vt 0.87005455 1.00000000
vt 0.93308627 0.00000000
vt 0.93308627 1.00000000
vt 1.00000000 0.00000000
vt 1.00000000 1.00000000
vt 0.00000000 1.00000000
vt 0.00000000 0.00000000
vt 1.00000000 0.00000000
vt 1.00000000 1.00000000
vt 0.00000000 0.96271817
vt 0.01806898 0.00000000
vt 1.00000000 0.03660819
vt 1.00000000 1.00000000
vt 0.00000000 0.76263644
vt 0.02688484 0.00000000
vt 1.00000000 0.23307464
vt 0.99102191 1.00000000
vt 0.00000000 1.00000000
vt 0.00000000 0.00000000
vt 1.00000000 0.00000000
vt 1.00000000 1.00000000
vt 0.00000000 1.00000000
vt 0.00000000 0.00000000
vt 1.00000000 0.00000000
vt 1.00000000 1.00000000
vt 0.00000000 1.00000000
vt 0.00000000 0.00000000
vt 1.00000000 0.00000000
vt 1.00000000 1.00000000
vt 0.00000000 0.51191835
vt 0.06131854 0.00000000
vt 1.00000000 0.47926251
vt 0.95595458 1.00000000
vt 0.00000000 1.00000000
vt 0.00000000 0.00000000
vt 1.00000000 0.00000000
vt 1.00000000 1.00000000
vt 0.00000000 1.00000000
vt 0.00000000 0.00000000
vt 1.00000000 0.00000000
vt 1.00000000 1.00000000
vt 0.00000000 1.00000000
vt 0.00000000 0.00000000
vt 1.00000000 0.00000000
vt 1.00000000 1.00000000
vt 0.00000000 1.00000000
vt 0.00000000 0.00000000
vt 1.00000000 0.00000000
vt 1.00000000 1.00000000
vt 0.00000000 0.37740221
vt 0.09560111 0.00000000
vt 1.00000000 0.61134808
vt 0.92104116 1.00000000
vt 0.00000000 1.00000000
vt 0.00000000 0.00000000
vt 1.00000000 0.00000000
vt 1.00000000 1.00000000
vt 0.00000000 1.00000000
vt 0.00000000 0.00000000
vt 1.00000000 0.00000000
vt 1.00000000 1.00000000
vt 0.00000000 1.00000000
vt 0.00000000 0.00000000
vt 1.00000000 0.00000000
vt 1.00000000 1.00000000
vt 0.00000000 0.29036264
vt 0.13131675 0.00000000
vt 1.00000000 0.69681493
vt 0.88466830 1.00000000
vt 0.00000000 1.00000000
vt 0.00000000 0.00000000
vt 1.00000000 0.00000000
vt 1.00000000 1.00000000
vt 0.00000000 1.00000000
vt 0.00000000 0.00000000
vt 1.00000000 0.00000000
vt 1.00000000 1.00000000
vt 0.00000000 1.00000000
vt 0.00000000 0.00000000
vt 1.00000000 0.00000000
vt 1.00000000 1.00000000
vt 0.00000000 0.22704411
vt 0.17032748 0.00000000
vt 1.00000000 0.75898936
vt 0.84493972 1.00000000
vt 0.00000000 1.00000000
vt 0.00000000 0.00000000
vt 1.00000000 0.00000000
vt 1.00000000 1.00000000
vt 0.00000000 1.00000000
vt 0.00000000 0.00000000
vt 1.00000000 0.00000000
vt 1.00000000 1.00000000
vt 0.00000000 1.00000000
vt 0.00000000 0.00000000
vt 1.00000000 0.00000000
vt 1.00000000 1.00000000
vt 0.00000000 0.17695386
vt 0.21520133 0.00000000
vt 1.00000000 0.80817453
vt 0.79924012 1.00000000
vt 0.00000000 1.00000000
vt 0.00000000 0.00000000
vt 1.00000000 0.00000000
vt 1.00000000 1.00000000
vt 0.00000000 1.00000000
vt 0.00000000 0.00000000
vt 1.00000000 0.00000000
vt 1.00000000 1.00000000
vt 0.00000000 1.00000000
vt 0.00000000 0.00000000
vt 1.00000000 0.00000000
vt 1.00000000 1.00000000
vt 0.00000000 0.13463604
vt 0.26999891 0.00000000
vt 1.00000000 0.84972772
vt 0.74343419 1.00000000
vt 0.00000000 1.00000000
vt 0.00000000 0.00000000
vt 1.00000000 0.00000000
vt 1.00000000 1.00000000
vt 1.00000000 0.00000000
vt 1.00000000 1.00000000
vt 0.00000000 1.00000000
vt 0.00000000 0.00000000
vt 0.06691347 1.00000000
vt 0.00000000 1.00000000
vt 0.00000000 0.00000000
vt 0.06691347 0.00000000
vt 0.12994488 0.00000000
vt 0.12994488 1.00000000
vt 0.19055415 0.00000000
vt 0.19055415 1.00000000
vt 0.24999250 0.00000000
vt 0.24999890 1.00000000
vt 0.30944378 0.00000000
vt 0.30944378 1.00000000
vt 0.37005343 0.00000000
vt 0.37005343 1.00000000
vt 0.43308551 0.00000000
vt 0.43308551 1.00000000
vt 0.49998500 0.00000000
vt 0.49999998 1.00000000
vt 0.56691245 0.00000000
vt 0.56691245 1.00000000
vt 0.62994319 0.00000000
vt 0.62994319 1.00000000
vt 0.69055208 0.00000000
vt 0.69055208 1.00000000
vt 0.74997750 0.00000000
vt 0.74999671 1.00000000
vt 0.80944171 0.00000000
vt 0.80944171 1.00000000
vt 0.87005174 0.00000000
vt 0.87005174 1.00000000
vt 0.93308448 0.00000000
vt 0.93308448 1.00000000
vt 0.99997000 0.00000000
vt 0.99997000 1.00000000
vt 0.00000000 1.00000000
vt 0.00000000 0.00000000
vt 0.19501127 0.99040050
vt 0.38261389 0.96195417
vt 0.55551248 0.91575410
vt 0.70710678 0.85355339
vt 0.83143748 0.77780916
vt 0.92385963 0.69136574
vt 0.98077618 0.59756803
vt 1.00000000 0.50000000
vt 0.98079273 0.40247357
vt 0.92389210 0.30867346
vt 0.83148463 0.22222612
vt 0.70710678 0.14644661
vt 0.55558304 0.08426947
vt 0.38269229 0.03806207
vt 0.19509446 0.00960777
vt 0.59723316 0.50000966
vt 1.00000000 0.76590364
vt 0.55781808 1.00000000
vt 0.00000000 0.22000261
vt 0.45226112 0.00000000
vt 1.00000000 0.00000000
vt 1.00000000 1.00000000
vt 0.00000000 1.00000000
vt 0.00000000 0.00000000
vt 0.00000000 0.15506118
vt 0.24101311 0.00000000
vt 1.00000000 0.82967164
vt 0.77295337 1.00000000
vt 0.00000000 1.00000000
vt 0.00000000 0.00000000
vt 1.00000000 0.00000000
vt 1.00000000 1.00000000
vt 0.00000000 0.20075899
vt 0.19182600 0.00000000
vt 1.00000000 0.78479954
vt 0.82304560 1.00000000
vt 0.00000000 1.00000000
vt 0.00000000 0.00000000
vt 1.00000000 0.00000000
vt 1.00000000 1.00000000
vt 0.00000000 0.25656556
vt 0.15027291 0.00000000
vt 1.00000000 0.73000133
vt 0.86536332 1.00000000
vt 0.00000000 1.00000000
vt 0.00000000 0.00000000
vt 1.00000000 0.00000000
vt 1.00000000 1.00000000
vt 0.00000000 0.32991306
vt 0.11317397 0.00000000
vt 1.00000000 0.65797915
vt 0.90314494 1.00000000
vt 0.00000000 1.00000000
vt 0.00000000 0.00000000
vt 1.00000000 0.00000000
vt 1.00000000 1.00000000
vt 0.00000000 0.43621708
vt 0.07838236 0.00000000
vt 1.00000000 0.55359594
vt 0.93857677 1.00000000
vt 0.00000000 1.00000000
vt 0.00000000 0.00000000
vt 1.00000000 0.00000000
vt 1.00000000 1.00000000
vt 0.00000000 0.61433385
vt 0.04421771 0.00000000
vt 1.00000000 0.37869755
vt 0.97337010 1.00000000
vt 0.00000000 1.00000000
vt 0.00000000 0.00000000
vt 1.00000000 0.00000000
vt 1.00000000 1.00000000
vt 0.00000000 1.00000000
vt 0.00000000 0.00000000
vt 0.19508926 0.00960725
vt 0.38268249 0.03806004
vt 0.55556981 0.08426505
vt 0.70710678 0.14644661
vt 0.83146990 0.22221510
vt 0.92387992 0.30865876
vt 0.98078549 0.40245537
vt 1.00000000 0.50000000
vt 0.98078549 0.59754463
vt 0.92387992 0.69134124
vt 0.83146990 0.77778490
vt 0.70710678 0.85355339
vt 0.55556981 0.91573495
vt 0.38268249 0.96193996
vt 0.19508926 0.99039275
vt 0.59724514 0.50000000
vt 0.00000000 1.00000000
vt 0.00000000 0.00000000
vt 1.00000000 0.00000000
vt 1.00000000 1.00000000
vn -0.23775284 0.94868330 0.20850320
vn -0.27386128 0.94868330 0.15811388
vn -0.27386128 0.94868330 0.15811388
vn -0.23775284 0.94868330 0.20850320
vn -0.19250752 0.94868330 0.25088016
vn -0.19250752 0.94868330 0.25088016
vn -0.13986411 0.94868330 0.28361599
vn -0.13986411 0.94868330 0.28361599
vn -0.08184577 0.94868330 0.30545257
vn -0.08184577 0.94868330 0.30545257
vn -0.02068212 0.94868330 0.31555071
vn -0.02068212 0.94868330 0.31555071
vn 0.04127632 0.94868330 0.31352235
vn 0.04127632 0.94868330 0.31352235
vn 0.10164840 0.94868330 0.29944549
vn 0.10164840 0.94868330 0.29944549
vn 0.15811388 0.94868330 0.27386128
vn 0.15811388 0.94868330 0.27386128
vn 0.20850320 0.94868330 0.23775284
vn 0.20850320 0.94868330 0.23775284
vn 0.25088016 0.94868330 0.19250752
vn 0.25088016 0.94868330 0.19250752
vn 0.28361599 0.94868330 0.13986411
vn 0.28361599 0.94868330 0.13986411
vn 0.30545257 0.94868330 0.08184577
vn 0.30545257 0.94868330 0.08184577
vn 0.31555071 0.94868330 0.02068212
vn 0.31555071 0.94868330 0.02068212
vn 0.31352235 0.94868330 -0.04127632
vn 0.31352235 0.94868330 -0.04127632
vn 0.29944549 0.94868330 -0.10164840
vn 0.29944549 0.94868330 -0.10164840
vn 0.27386128 0.94868330 -0.15811388
vn 0.27386128 0.94868330 -0.15811388
vn -0.26775794 0.94868330 0.16824294
vn -0.26775794 0.94868330 0.16824294
vn 0.00000000 1.00000000 0.00000000
vn 0.00000000 1.00000000 0.00000000
vn 0.00000000 1.00000000 0.00000000
vn 0.00000000 1.00000000 0.00000000
vn 0.00000000 1.00000000 0.00000000
vn 0.00000000 1.00000000 0.00000000
vn 0.25443633 0.94868330 -0.18778219
vn 0.25443633 0.94868330 -0.18778219
vn 0.26775794 0.94868330 -0.16824294
vn 0.26775794 0.94868330 -0.16824294
vn 0.23969199 0.94868330 -0.20627106
vn 0.23969199 0.94868330 -0.20627106
vn 0.22360705 0.94868330 -0.22360655
vn 0.22360705 0.94868330 -0.22360655
vn 0.00000000 1.00000000 0.00000000
vn 0.00000000 1.00000000 0.00000000
vn 0.00000000 1.00000000 0.00000000
vn 0.00000000 1.00000000 0.00000000
vn -0.22360705 0.94868330 0.22360655
vn -0.22360705 0.94868330 0.22360655
vn -0.23969199 0.94868330 0.20627106
vn -0.23969199 0.94868330 0.20627106
vn -0.25443633 0.94868330 0.18778219
vn -0.25443633 0.94868330 0.18778219
vn -0.20627158 0.94868330 0.23969154
vn -0.20627158 0.94868330 0.23969154
vn -0.18778256 0.94868330 0.25443607
vn -0.18778256 0.94868330 0.25443607
vn 0.00000000 1.00000000 0.00000000
vn 0.00000000 1.00000000 0.00000000
vn 0.00000000 1.00000000 0.00000000
vn 0.00000000 1.00000000 0.00000000
vn 0.18778256 0.94868330 -0.25443607
vn 0.18778256 0.94868330 -0.25443607
vn 0.20627158 0.94868330 -0.23969154
vn 0.20627158 0.94868330 -0.23969154
vn 0.16824336 0.94868330 -0.26775767
vn 0.16824336 0.94868330 -0.26775767
vn 0.14776327 0.94868330 -0.27958186
vn 0.14776327 0.94868330 -0.27958186
vn 0.00000000 1.00000000 0.00000000
vn 0.00000000 1.00000000 0.00000000
vn 0.00000000 1.00000000 0.00000000
vn 0.00000000 1.00000000 0.00000000
vn -0.14776327 0.94868330 0.27958186
vn -0.14776327 0.94868330 0.27958186
vn -0.16824336 0.94868330 0.26775767
vn -0.16824336 0.94868330 0.26775767
vn -0.12645682 0.94868330 0.28984250
vn -0.12645682 0.94868330 0.28984250
vn -0.10444317 0.94868330 0.29848220
vn -0.10444317 0.94868330 0.29848220
vn 0.00000000 1.00000000 0.00000000
vn 0.00000000 1.00000000 0.00000000
vn 0.00000000 1.00000000 0.00000000
vn 0.00000000 1.00000000 0.00000000
vn 0.10444317 0.94868330 -0.29848220
vn 0.10444317 0.94868330 -0.29848220
vn 0.12645682 0.94868330 -0.28984250
vn 0.12645682 0.94868330 -0.28984250
vn 0.08184542 0.94868330 -0.30545266
vn 0.08184542 0.94868330 -0.30545266
vn 0.05878998 0.94868330 -0.31071488
vn 0.05878998 0.94868330 -0.31071488
vn 0.00000000 1.00000000 0.00000000
vn 0.00000000 1.00000000 0.00000000
vn 0.00000000 1.00000000 0.00000000
vn 0.00000000 1.00000000 0.00000000
vn -0.05878998 0.94868330 0.31071488
vn -0.05878998 0.94868330 0.31071488
vn -0.08184542 0.94868330 0.30545266
vn -0.08184542 0.94868330 0.30545266
vn -0.03540598 0.94868330 0.31423943
vn -0.03540598 0.94868330 0.31423943
vn -0.01182369 0.94868330 0.31600665
vn -0.01182369 0.94868330 0.31600665
vn 0.00000000 1.00000000 0.00000000
vn 0.00000000 1.00000000 0.00000000
vn 0.00000000 1.00000000 0.00000000
vn 0.00000000 1.00000000 0.00000000
vn 0.01182369 0.94868330 -0.31600665
vn 0.01182369 0.94868330 -0.31600665
vn 0.03540598 0.94868330 -0.31423943
vn 0.03540598 0.94868330 -0.31423943
vn -0.00000000 0.94868330 -0.31622777
vn -0.00000000 0.94868330 -0.31622777
vn -0.06169429 0.94868330 0.31015128
vn 0.00000000 0.94868330 0.31622777
vn -0.00000000 0.94868330 0.31622777
vn -0.06169429 0.94868330 0.31015128
vn -0.12101793 0.94868330 0.29215520
vn -0.12101793 0.94868330 0.29215520
vn -0.17569078 0.94868330 0.26293108
vn -0.17569078 0.94868330 0.26293108
vn -0.22360680 0.94868330 0.22360680
vn -0.22361154 0.94868330 0.22360205
vn -0.26293853 0.94868330 0.17567962
vn -0.26293853 0.94868330 0.17567962
vn -0.29216033 0.94868330 0.12100554
vn -0.29216033 0.94868330 0.12100554
vn -0.31015389 0.94868330 0.06168114
vn -0.31015389 0.94868330 0.06168114
vn -0.31622777 0.94868330 0.00000000
vn -0.31622777 0.94868330 -0.00001340
vn -0.31014866 0.94868330 -0.06170744
vn -0.31014866 0.94868330 -0.06170744
vn -0.29215006 0.94868330 -0.12103033
vn -0.29215006 0.94868330 -0.12103033
vn -0.26292362 0.94868330 -0.17570193
vn -0.26292362 0.94868330 -0.17570193
vn -0.22360680 0.94868330 -0.22360680
vn -0.22359257 0.94868330 -0.22362103
vn -0.17566847 0.94868330 -0.26294598
vn -0.17566847 0.94868330 -0.26294598
vn -0.12099314 0.94868330 -0.29216547
vn -0.12099314 0.94868330 -0.29216547
vn -0.06166798 0.94868330 -0.31015651
vn -0.06166798 0.94868330 -0.31015651
vn 0.00000000 1.00000000 0.00000000
vn 0.00000000 1.00000000 0.00000000
vn 0.00000000 1.00000000 0.00000000
vn 0.00000000 1.00000000 0.00000000
vn 0.00000000 1.00000000 0.00000000
vn 0.00000000 1.00000000 0.00000000
vn 0.00000000 1.00000000 0.00000000
vn 0.00000000 1.00000000 0.00000000
vn 0.00000000 1.00000000 0.00000000
vn 0.00000000 1.00000000 0.00000000
vn 0.00000000 1.00000000 0.00000000
vn 0.00000000 1.00000000 0.00000000
vn 0.00000000 1.00000000 0.00000000
vn 0.00000000 1.00000000 0.00000000
vn 0.00000000 1.00000000 0.00000000
vn 0.00000000 1.00000000 0.00000000
vn 0.00000000 1.00000000 0.00000000
vn 0.00000000 1.00000000 0.00000000
vn -0.00000000 1.00000000 0.00000000
vn -0.00000000 1.00000000 0.00000000
vn -0.00000000 1.00000000 0.00000000
vn -0.00000000 1.00000000 0.00000000
vn -0.00000000 1.00000000 0.00000000
vn -0.00000000 1.00000000 0.00000000
vn -0.00000000 1.00000000 0.00000000
vn -0.00000000 1.00000000 0.00000000
vn -0.00000000 1.00000000 0.00000000
vn -0.00000000 1.00000000 0.00000000
vn -0.00000000 1.00000000 0.00000000
vn -0.00000000 1.00000000 0.00000000
vn -0.00000000 1.00000000 0.00000000
vn -0.00000000 1.00000000 0.00000000
vn -0.00000000 1.00000000 0.00000000
vn -0.00000000 1.00000000 0.00000000
s 1
usemtl Raceline_Red
f 1/1/1 2/2/2 4/4/4
f 4/4/4 5/5/5 6/6/6
f 5/5/5 8/8/8 6/6/6
f 7/7/7 10/10/10 8/8/8
f 9/9/9 12/12/12 10/10/10
f 11/11/11 14/14/14 12/12/12
f 13/13/13 16/16/16 14/14/14
f 15/15/15 18/18/18 16/16/16
f 17/17/17 20/20/20 18/18/18
f 19/19/19 22/22/22 20/20/20
f 21/21/21 24/24/24 22/22/22
f 23/23/23 26/26/26 24/24/24
f 27/27/27 28/28/28 26/26/26
f 29/29/29 30/30/30 28/28/28
f 31/31/31 32/32/32 30/30/30
f 33/33/33 34/34/34 32/32/32
f 34/284/34 41/282/45 37/281/46
f 27/27/27 29/29/29 28/28/28
f 38/54/43 43/52/48 42/51/47
f 25/25/25 27/27/27 26/26/26
f 44/254/49 58/252/71 56/251/72
f 23/23/23 25/25/25 26/26/26
f 55/90/69 60/88/74 59/87/73
f 21/21/21 23/23/23 24/24/24
f 61/238/75 74/236/95 72/235/96
f 19/19/19 21/21/21 22/22/22
f 71/122/93 76/120/98 75/119/97
f 17/17/17 19/19/19 20/20/20
f 77/222/99 90/220/119 88/219/120
f 15/15/15 17/17/17 18/18/18
f 92/154/122 91/153/121 87/152/117
f 124/186/154 92/187/122 123/185/153
f 122/184/152 123/185/153 121/183/151
f 120/182/150 121/183/151 119/181/149
f 118/180/148 119/181/149 117/179/147
f 116/178/146 117/179/147 115/177/145
f 114/176/144 115/177/145 113/175/143
f 112/174/142 113/175/143 111/173/141
f 112/174/142 111/173/141 109/171/139
f 110/172/140 109/171/139 107/169/137
f 108/170/138 107/169/137 105/167/135
f 106/168/136 105/167/135 103/165/133
f 104/166/134 103/165/133 101/163/131
f 102/164/132 101/163/131 99/161/129
f 100/162/130 99/161/129 97/159/127
f 98/160/128 97/159/127 96/158/126
f 96/158/126 94/156/124 93/155/123
f 94/214/124 85/212/111 86/211/112
f 13/13/13 15/15/15 16/16/16
f 81/138/105 79/137/106 84/136/110
f 11/11/11 13/13/13 14/14/14
f 69/230/87 70/229/88 80/228/107
f 9/9/9 11/11/11 12/12/12
f 65/106/81 63/105/82 68/104/86
f 7/7/7 9/9/9 10/10/10
f 53/246/63 54/245/64 64/244/83
f 5/5/5 7/7/7 8/8/8
f 48/74/55 46/73/56 52/72/62
f 3/38/3 2/37/2 36/36/36
f 50/70/60 39/69/59 47/68/57
f 2/2/2 3/3/3 4/4/4
f 3/38/3 36/36/36 35/35/35
f 93/155/123 98/160/128 96/158/126
f 50/70/60 47/68/57 49/67/58
f 48/74/55 52/72/62 51/71/61
f 53/246/63 64/244/83 66/243/84
f 65/106/81 68/104/86 67/103/85
f 69/230/87 80/228/107 82/227/108
f 81/138/105 84/136/110 83/135/109
f 94/214/124 95/213/125 85/212/111
f 96/158/126 95/157/125 94/156/124
f 98/160/128 100/162/130 97/159/127
f 100/162/130 102/164/132 99/161/129
f 102/164/132 104/166/134 101/163/131
f 104/166/134 106/168/136 103/165/133
f 106/168/136 108/170/138 105/167/135
f 108/170/138 110/172/140 107/169/137
f 110/172/140 112/174/142 109/171/139
f 112/174/142 114/176/144 113/175/143
f 114/176/144 116/178/146 115/177/145
f 116/178/146 118/180/148 117/179/147
f 118/180/148 120/182/150 119/181/149
f 120/182/150 122/184/152 121/183/151
f 122/184/152 124/186/154 123/185/153
f 124/186/154 91/188/121 92/187/122
f 92/154/122 87/152/117 89/151/118
f 29/29/29 31/31/31 30/30/30
f 77/222/99 78/221/100 90/220/119
f 71/122/93 73/121/94 76/120/98
f 61/238/75 62/237/76 74/236/95
f 55/90/69 57/89/70 60/88/74
f 44/254/49 45/253/50 58/252/71
f 38/54/43 40/53/44 43/52/48
f 34/284/34 33/283/33 41/282/45
f 31/31/31 33/33/33 32/32/32
f 4/4/4 6/6/6 1/1/1
usemtl Raceline_White
f 37/50/46 40/48/44 38/47/43
f 42/58/47 45/56/50 44/55/49
f 56/86/72 57/84/70 55/83/69
f 59/94/73 62/92/76 61/91/75
f 72/118/96 73/116/94 71/115/93
f 75/126/97 78/124/100 77/123/99
f 88/150/120 89/148/118 87/147/117
f 83/142/109 84/141/110 86/140/112
f 82/134/108 80/133/107 79/132/106
f 67/110/85 68/109/86 70/108/88
f 66/102/84 64/101/83 63/100/82
f 51/78/61 52/77/62 54/76/64
f 49/66/58 47/65/57 46/64/56
f 35/262/35 36/261/36 39/260/59
f 72/118/96 74/117/95 73/116/94
f 51/78/61 54/76/64 53/75/63
f 59/94/73 60/93/74 62/92/76
f 67/110/85 70/108/88 69/107/87
f 56/86/72 58/85/71 57/84/70
f 35/262/35 39/260/59 50/259/60
f 42/58/47 43/57/48 45/56/50
f 49/66/58 46/64/56 48/63/55
f 37/50/46 41/49/45 40/48/44
f 82/134/108 79/132/106 81/131/105
f 66/102/84 63/100/82 65/99/81
f 75/126/97 76/125/98 78/124/100
f 83/142/109 86/140/112 85/139/111
f 88/150/120 90/149/119 89/148/118
s 2
usemtl Raceline_Red
f 37/39/37 36/40/38 2/41/39
f 2/264/39 1/265/173 126/280/188
f 32/279/187 34/263/40 126/280/188
f 30/278/186 32/279/187 126/280/188
f 28/277/185 30/278/186 126/280/188
f 26/276/184 28/277/185 126/280/188
f 24/275/183 26/276/184 126/280/188
f 22/274/182 24/275/183 126/280/188
f 20/273/181 22/274/182 126/280/188
f 18/272/180 20/273/181 126/280/188
f 16/271/179 18/272/180 126/280/188
f 14/270/178 16/271/179 126/280/188
f 12/269/177 14/270/178 126/280/188
f 10/268/176 12/269/177 126/280/188
f 8/267/175 10/268/176 126/280/188
f 6/266/174 8/267/175 126/280/188
f 1/265/173 6/266/174 126/280/188
f 34/263/40 2/264/39 126/280/188
f 75/223/104 70/225/90 71/226/89
f 42/255/54 47/256/53 39/257/42
f 72/231/92 63/233/78 61/234/77
f 56/247/68 52/248/67 46/249/52
f 59/239/80 54/241/66 55/242/65
f 59/239/80 64/240/79 54/241/66
f 93/205/171 94/190/156 125/206/172
f 72/231/92 68/232/91 63/233/78
f 56/247/68 46/249/52 44/250/51
f 75/223/104 80/224/103 70/225/90
f 42/255/54 39/257/42 38/258/41
f 88/215/116 84/216/115 79/217/102
f 37/39/37 2/41/39 34/42/40
f 91/209/155 94/210/156 86/207/114
f 114/196/162 112/197/163 125/206/172
f 100/203/169 98/204/170 125/206/172
f 102/202/168 100/203/169 125/206/172
f 104/201/167 102/202/168 125/206/172
f 106/200/166 104/201/167 125/206/172
f 108/199/165 106/200/166 125/206/172
f 110/198/164 108/199/165 125/206/172
f 112/197/163 110/198/164 125/206/172
f 116/195/161 114/196/162 125/206/172
f 118/194/160 116/195/161 125/206/172
f 120/193/159 118/194/160 125/206/172
f 122/192/158 120/193/159 125/206/172
f 124/191/157 122/192/158 125/206/172
f 98/204/170 93/205/171 125/206/172
f 91/189/155 124/191/157 125/206/172
f 94/190/156 91/189/155 125/206/172
f 86/207/114 87/208/113 91/209/155
f 88/215/116 79/217/102 77/218/101
usemtl Raceline_White
f 38/43/41 39/44/42 36/45/38
f 44/59/51 46/60/52 47/61/53
f 55/79/65 54/80/66 52/81/67
f 71/111/89 70/112/90 68/113/91
f 77/127/101 79/128/102 80/129/103
f 87/143/113 86/144/114 84/145/115
f 61/95/77 64/97/79 59/98/80
f 77/127/101 80/129/103 75/130/104
f 55/79/65 52/81/67 56/82/68
f 87/143/113 84/145/115 88/146/116
f 44/59/51 47/61/53 42/62/54
f 71/111/89 68/113/91 72/114/92
f 38/43/41 36/45/38 37/46/37
f 61/95/77 63/96/78 64/97/79
