mtllib Prop_Raceline_Curve_Sharp_Inner.mtl
o object1
g object1
v -0.47982843 0.00329977 0.23325473
v -0.47051138 0.00329977 0.23759935
v -0.47546104 -0.00000000 0.24617240
v -0.48321422 -0.00000000 0.24255702
v -0.49147751 -0.00000000 0.24034284
v -0.48975848 0.00329977 0.23059394
v -0.50000000 0.00000000 0.23959721
v -0.50000000 0.00329977 0.22969790
v -0.50193132 0.00329977 0.21008953
v -0.50000000 0.00329977 0.20989930
v -0.50000000 0.00000000 0.20000000
v -0.50386264 -0.00000000 0.20038045
v -0.50757683 -0.00000000 0.20150717
v -0.50378841 0.00329977 0.21065289
v -0.51099979 -0.00000000 0.20333685
v -0.50549990 0.00329977 0.21156773
v -0.51399973 -0.00000000 0.20579888
v -0.50699986 0.00329977 0.21279874
v -0.51646222 -0.00000000 0.20879951
v -0.50823111 0.00329977 0.21429906
v -0.51829175 -0.00000000 0.21222255
v -0.50914588 0.00329977 0.21601058
v -0.51941832 -0.00000000 0.21593678
v -0.50970916 0.00329977 0.21786769
v -0.51979860 0.00000000 0.21979860
v -0.50989930 0.00329977 0.21979860
v -0.51941799 0.00000000 0.22366207
v -0.50970899 0.00329977 0.22173034
v -0.51829111 0.00000000 0.22737621
v -0.50914555 0.00329977 0.22358741
v -0.51646129 0.00000000 0.23079909
v -0.50823064 0.00329977 0.22529885
v -0.51399973 0.00000000 0.23379833
v -0.50699986 0.00329977 0.22679847
v -0.51099839 0.00000000 0.23626129
v -0.50549920 0.00329977 0.22802995
v -0.50757527 0.00000000 0.23809067
v -0.50378764 0.00329977 0.22894464
v -0.50386100 0.00000000 0.23921708
v -0.50193050 0.00329977 0.22950784
v -0.46967106 -0.00000000 0.20534786
v -0.45566243 -0.00000000 0.21188022
v -0.46061208 0.00329977 0.22045326
v -0.47305685 0.00329977 0.21465015
v -0.48632041 0.00329977 0.21109614
v -0.48460137 -0.00000000 0.20134724
v -0.41267089 -0.00000000 0.27328339
v -0.41132487 -0.00000000 0.28867513
v -0.42122417 0.00329977 0.28867513
v -0.42241993 0.00329977 0.27500166
v -0.42597332 0.00329977 0.26173664
v -0.41667082 -0.00000000 0.25835143
v -0.43177622 0.00329977 0.24929052
v -0.42320293 -0.00000000 0.24434129
v -0.43965261 0.00329977 0.23804092
v -0.43206910 -0.00000000 0.23167801
v -0.44936281 0.00329977 0.22833023
v -0.44299953 -0.00000000 0.22074704
v -0.44102277 0.00329977 0.28867513
v -0.46208938 0.00329977 0.24349662
v -0.45481962 0.00329977 0.25076673
v -0.44892279 0.00329977 0.25918900
v -0.44457833 0.00329977 0.26850705
v -0.44191800 0.00329977 0.27843819
v -0.44892422 0.00329977 0.31816375
v -0.43177813 0.00329977 0.32806305
v -0.42597501 0.00329977 0.31561829
v -0.42242100 0.00329977 0.30235473
v -0.44191881 0.00329977 0.29891666
v -0.44457959 0.00329977 0.30884671
v -0.43473042 0.00329977 0.30616399
v -0.44972487 0.00329977 0.31993064
v -0.45016569 0.00329977 0.32182057
v -0.45022932 0.00329977 0.32376017
v -0.44991316 0.00329977 0.32567553
v -0.44922985 0.00329977 0.32749122
v -0.44820515 0.00329977 0.32913928
v -0.44687860 0.00329977 0.33055577
v -0.44530082 0.00329977 0.33168645
v -0.44353354 0.00329977 0.33248723
v -0.44164358 0.00329977 0.33292797
v -0.43970398 0.00329977 0.33299152
v -0.43778905 0.00329977 0.33267539
v -0.43597297 0.00329977 0.33199189
v -0.43432496 0.00329977 0.33096712
v -0.43290853 0.00329977 0.32964051
v -0.44330743 0.00329977 0.32823341
v -0.42320508 0.00000000 0.33301270
v -0.42546588 -0.00000000 0.33616763
v -0.42829875 -0.00000000 0.33882084
v -0.43159477 -0.00000000 0.34087037
v -0.43522692 -0.00000000 0.34223738
v -0.43905679 -0.00000000 0.34286965
v -0.44293600 -0.00000000 0.34274255
v -0.44671590 -0.00000000 0.34186107
v -0.45025048 0.00000000 0.34025949
v -0.45340603 0.00000000 0.33799814
v -0.45605913 0.00000000 0.33516516
v -0.45810852 0.00000000 0.33186905
v -0.45947516 0.00000000 0.32823766
v -0.46010747 0.00000000 0.32440695
v -0.45998021 0.00000000 0.32052774
v -0.45909857 0.00000000 0.31674788
v -0.45749727 0.00000000 0.31321410
v -0.45388188 -0.00000000 0.30546092
v -0.45166771 -0.00000000 0.29719762
v -0.45092207 -0.00000000 0.28867513
v -0.41667272 -0.00000000 0.31900407
v -0.41267210 -0.00000000 0.30407376
v -0.50591219 0.00329977 0.21979879
v -0.45166704 -0.00000000 0.28015646
v -0.45388083 -0.00000000 0.27189225
v -0.45749608 -0.00000000 0.26413823
v -0.46240313 -0.00000000 0.25712964
v -0.46845266 -0.00000000 0.25107981
v -0.48251115 0.00329977 0.22340555
vt 0.31866801 1.00000000
vt 0.00000000 1.00000000
vt 0.00000000 0.00000000
vt 0.31866801 0.00000000
vt 0.64993973 0.00000000
vt 0.64993973 1.00000000
vt 1.00000000 0.00000000
vt 1.00000000 1.00000000
vt 0.06691347 1.00000000
vt 0.00000000 1.00000000
vt 0.00000000 0.00000000
vt 0.06691347 0.00000000
vt 0.12994488 0.00000000
vt 0.12994488 1.00000000
vt 0.19055415 0.00000000
vt 0.19055415 1.00000000
vt 0.24999250 0.00000000
vt 0.24999890 1.00000000
vt 0.30944378 0.00000000
vt 0.30944378 1.00000000
vt 0.37005343 0.00000000
vt 0.37005343 1.00000000
vt 0.43308551 0.00000000
vt 0.43308551 1.00000000
vt 0.49998500 0.00000000
vt 0.49999998 1.00000000
vt 0.56691245 0.00000000
vt 0.56691245 1.00000000
vt 0.62994319 0.00000000
vt 0.62994319 1.00000000
vt 0.69055208 0.00000000
vt 0.69055208 1.00000000
vt 0.74997750 0.00000000
vt 0.74999671 1.00000000
vt 0.80944171 0.00000000
vt 0.80944171 1.00000000
vt 0.87005174 0.00000000
vt 0.87005174 1.00000000
vt 0.93308448 0.00000000
vt 0.93308448 1.00000000
vt 0.99997000 0.00000000
vt 0.99997000 1.00000000
vt 0.31866801 1.00000000
vt 0.00000000 1.00000000
vt 0.00000000 0.00000000
vt 0.31866801 0.00000000
vt 0.64993973 0.00000000
vt 0.64993973 1.00000000
vt 1.00000000 0.00000000
vt 1.00000000 1.00000000
vt 0.18120944 1.00000000
vt 0.00010622 1.00000000
vt 0.00010622 0.00000000
vt 0.18120944 0.00000000
vt 0.35268965 0.00000000
vt 0.35268965 1.00000000
vt 0.51764231 0.00000000
vt 0.51764231 1.00000000
vt 0.67883795 0.00000000
vt 0.67883795 1.00000000
vt 0.83880606 0.00000000
vt 0.83880606 1.00000000
vt 1.00000000 0.00000000
vt 1.00000000 1.00000000
vt 0.79915074 1.00000000
vt 0.00000000 0.00000000
vt 0.40169853 0.00000000
vt 1.00000000 0.74867162
vt 0.82912526 0.66222985
vt 0.68162491 0.55566240
vt 0.56198281 0.43220790
vt 0.47383579 0.29561893
vt 0.41986171 0.15004572
vt 0.02426055 0.20041593
vt 0.09635367 0.39485794
vt 0.21409157 0.57729971
vt 0.37389741 0.74219777
vt 0.57091350 0.88453981
vt 1.00000000 0.25132838
vt 0.71474963 1.00000000
vt 0.00000000 1.00000000
vt 0.38100867 0.00000000
vt 0.17150594 0.31596332
vt 0.04320389 0.65270865
vt 0.74709515 0.73999283
vt 0.84315125 0.48788116
vt 0.48758931 0.55598429
vt 0.00000000 1.00000000
vt 0.00000000 0.00000000
vt 0.19501128 0.99040050
vt 0.38261389 0.96195417
vt 0.55551248 0.91575410
vt 0.70710678 0.85355339
vt 0.83143748 0.77780916
vt 0.92385963 0.69136574
vt 0.98077618 0.59756803
vt 1.00000000 0.50000000
vt 0.98079273 0.40247357
vt 0.92389210 0.30867346
vt 0.83148463 0.22222612
vt 0.70710678 0.14644661
vt 0.55558304 0.08426947
vt 0.38269229 0.03806207
vt 0.19509446 0.00960777
vt 0.59723316 0.50000966
vt 0.06691347 1.00000000
vt 0.00000000 1.00000000
vt 0.00000000 0.00000000
vt 0.06691347 0.00000000
vt 0.12994488 0.00000000
vt 0.12994488 1.00000000
vt 0.19055415 0.00000000
vt 0.19055415 1.00000000
vt 0.24999250 0.00000000
vt 0.24999890 1.00000000
vt 0.30944378 0.00000000
vt 0.30944378 1.00000000
vt 0.37005343 0.00000000
vt 0.37005343 1.00000000
vt 0.43308551 0.00000000
vt 0.43308551 1.00000000
vt 0.49998500 0.00000000
vt 0.49999998 1.00000000
vt 0.56691245 0.00000000
vt 0.56691245 1.00000000
vt 0.62994319 0.00000000
vt 0.62994319 1.00000000
vt 0.69055208 0.00000000
vt 0.69055208 1.00000000
vt 0.74997750 0.00000000
vt 0.74999671 1.00000000
vt 0.80944171 0.00000000
vt 0.80944171 1.00000000
vt 0.87005174 0.00000000
vt 0.87005174 1.00000000
vt 0.93308448 0.00000000
vt 0.93308448 1.00000000
vt 0.99997000 0.00000000
vt 0.99997000 1.00000000
vt 0.31866801 1.00000000
vt 0.00000000 1.00000000
vt 0.00000000 0.00000000
vt 0.31866801 0.00000000
vt 0.64993973 1.00000000
vt 0.64993973 0.00000000
vt 1.00000000 0.00000000
vt 1.00000000 1.00000000
vt 0.31866801 1.00000000
vt 0.00000000 1.00000000
vt 0.00000000 0.00000000
vt 0.31866801 0.00000000
vt 0.64993973 1.00000000
vt 0.64993973 0.00000000
vt 1.00000000 0.00000000
vt 1.00000000 1.00000000
vt 0.00000000 1.00000000
vt 0.00000000 0.00000000
vt 0.19509446 0.00960777
vt 0.38269229 0.03806207
vt 0.55558304 0.08426947
vt 0.70710678 0.14644661
vt 0.83148463 0.22222612
vt 0.92389210 0.30867346
vt 0.98079273 0.40247357
vt 1.00000000 0.50000000
vt 0.98077618 0.59756803
vt 0.92385963 0.69136574
vt 0.83143748 0.77780916
vt 0.70710678 0.85355339
vt 0.55551248 0.91575410
vt 0.38261389 0.96195417
vt 0.19501128 0.99040050
vt 0.59723316 0.50000966
vt 0.18120944 1.00000000
vt 0.00010622 1.00000000
vt 0.00010622 0.00000000
vt 0.18120944 0.00000000
vt 0.35268965 0.00000000
vt 0.35268965 1.00000000
vt 0.51764231 0.00000000
vt 0.51764231 1.00000000
vt 0.67883795 0.00000000
vt 0.67883795 1.00000000
vt 0.83880606 0.00000000
vt 0.83880606 1.00000000
vt 1.00000000 0.00000000
vt 1.00000000 1.00000000
vt 1.00000000 1.00000000
vt 0.00000000 0.61899133
vt 0.25132838 0.00000000
vt 1.00000000 0.28525037
vt 0.73999283 0.25290485
vt 0.48788116 0.15684875
vt 0.31596332 0.82849406
vt 0.65270865 0.95679611
vt 0.55598429 0.51241069
vn -0.10815569 0.94868330 0.29715711
vn -0.15811388 0.94868330 0.27386128
vn -0.15811388 0.94868330 0.27386128
vn -0.10815569 0.94868330 0.29715711
vn -0.05491160 0.94868330 0.31142369
vn -0.05491160 0.94868330 0.31142369
vn 0.00000000 0.94868330 0.31622777
vn 0.00000000 0.94868330 0.31622777
vn -0.06169429 0.94868330 -0.31015128
vn 0.00000000 0.94868330 -0.31622777
vn -0.00000000 0.94868330 -0.31622777
vn -0.06169429 0.94868330 -0.31015128
vn -0.12101793 0.94868330 -0.29215520
vn -0.12101793 0.94868330 -0.29215520
vn -0.17569078 0.94868330 -0.26293108
vn -0.17569078 0.94868330 -0.26293108
vn -0.22360680 0.94868330 -0.22360680
vn -0.22361154 0.94868330 -0.22360205
vn -0.26293853 0.94868330 -0.17567962
vn -0.26293853 0.94868330 -0.17567962
vn -0.29216033 0.94868330 -0.12100554
vn -0.29216033 0.94868330 -0.12100554
vn -0.31015389 0.94868330 -0.06168114
vn -0.31015389 0.94868330 -0.06168114
vn -0.31622777 0.94868330 0.00000000
vn -0.31622777 0.94868330 0.00001340
vn -0.31014866 0.94868330 0.06170744
vn -0.31014866 0.94868330 0.06170744
vn -0.29215006 0.94868330 0.12103033
vn -0.29215006 0.94868330 0.12103033
vn -0.26292362 0.94868330 0.17570193
vn -0.26292362 0.94868330 0.17570193
vn -0.22360680 0.94868330 0.22360680
vn -0.22359257 0.94868330 0.22362103
vn -0.17566847 0.94868330 0.26294598
vn -0.17566847 0.94868330 0.26294598
vn -0.12099314 0.94868330 0.29216547
vn -0.12099314 0.94868330 0.29216547
vn -0.06166798 0.94868330 0.31015651
vn -0.06166798 0.94868330 0.31015651
vn 0.10815569 0.94868330 -0.29715711
vn 0.15811388 0.94868330 -0.27386128
vn 0.15811388 0.94868330 -0.27386128
vn 0.10815569 0.94868330 -0.29715711
vn 0.05491160 0.94868330 -0.31142369
vn 0.05491160 0.94868330 -0.31142369
vn 0.31142817 0.94868330 -0.05488622
vn 0.31622777 0.94868330 0.00000000
vn 0.31622777 0.94868330 0.00000000
vn 0.31142817 0.94868330 -0.05488622
vn 0.29716414 0.94868330 -0.10813637
vn 0.29716414 0.94868330 -0.10813637
vn 0.27386926 0.94868330 -0.15810006
vn 0.27386926 0.94868330 -0.15810006
vn 0.24225128 0.94868330 -0.20325924
vn 0.24225128 0.94868330 -0.20325924
vn 0.20327120 0.94868330 -0.24224124
vn 0.20327120 0.94868330 -0.24224124
vn 0.00000000 1.00000000 0.00000000
vn 0.00000000 1.00000000 0.00000000
vn 0.00000000 1.00000000 0.00000000
vn 0.00000000 1.00000000 0.00000000
vn 0.00000000 1.00000000 0.00000000
vn 0.00000000 1.00000000 0.00000000
vn 0.00000000 1.00000000 0.00000000
vn 0.00000000 1.00000000 0.00000000
vn 0.00000000 1.00000000 0.00000000
vn 0.00000000 1.00000000 0.00000000
vn 0.00000000 1.00000000 0.00000000
vn 0.00000000 1.00000000 0.00000000
vn 0.00000000 1.00000000 0.00000000
vn 0.00000000 1.00000000 0.00000000
vn 0.00000000 1.00000000 0.00000000
vn 0.00000000 1.00000000 0.00000000
vn 0.00000000 1.00000000 0.00000000
vn 0.00000000 1.00000000 0.00000000
vn 0.00000000 1.00000000 0.00000000
vn 0.00000000 1.00000000 0.00000000
vn 0.00000000 1.00000000 0.00000000
vn 0.00000000 1.00000000 0.00000000
vn 0.00000000 1.00000000 0.00000000
vn 0.00000000 1.00000000 0.00000000
vn 0.00000000 1.00000000 0.00000000
vn 0.00000000 1.00000000 0.00000000
vn 0.00000000 1.00000000 0.00000000
vn 0.00000000 1.00000000 0.00000000
vn 0.00000000 1.00000000 0.00000000
vn 0.00000000 1.00000000 0.00000000
vn 0.00000000 1.00000000 0.00000000
vn 0.00000000 1.00000000 0.00000000
vn 0.00000000 1.00000000 0.00000000
vn 0.00000000 1.00000000 0.00000000
vn 0.00000000 1.00000000 0.00000000
vn 0.00000000 1.00000000 0.00000000
vn 0.00000000 1.00000000 0.00000000
vn 0.23775174 0.94868330 0.20850446
vn 0.27386128 0.94868330 0.15811388
vn 0.27386128 0.94868330 0.15811388
vn 0.23775174 0.94868330 0.20850446
vn 0.19250486 0.94868330 0.25088220
vn 0.19250486 0.94868330 0.25088220
vn 0.13985960 0.94868330 0.28361821
vn 0.13985960 0.94868330 0.28361821
vn 0.08184577 0.94868330 0.30545257
vn 0.08183929 0.94868330 0.30545430
vn 0.02067375 0.94868330 0.31555126
vn 0.02067375 0.94868330 0.31555126
vn -0.04128630 0.94868330 0.31352104
vn -0.04128630 0.94868330 0.31352104
vn -0.10165951 0.94868330 0.29944172
vn -0.10165951 0.94868330 0.29944172
vn -0.15811388 0.94868330 0.27386128
vn -0.15812549 0.94868330 0.27385458
vn -0.20851454 0.94868330 0.23774290
vn -0.20851454 0.94868330 0.23774290
vn -0.25089037 0.94868330 0.19249421
vn -0.25089037 0.94868330 0.19249421
vn -0.28362415 0.94868330 0.13984757
vn -0.28362415 0.94868330 0.13984757
vn -0.30545257 0.94868330 0.08184577
vn -0.30545777 0.94868330 0.08182633
vn -0.31555213 0.94868330 0.02066036
vn -0.31555213 0.94868330 0.02066036
vn -0.31351929 0.94868330 -0.04129960
vn -0.31351929 0.94868330 -0.04129960
vn -0.29943741 0.94868330 -0.10167221
vn -0.29943741 0.94868330 -0.10167221
vn -0.27386128 0.94868330 -0.15811388
vn -0.27386128 0.94868330 -0.15811388
vn -0.29715711 0.94868330 -0.10815569
vn -0.29715711 0.94868330 -0.10815569
vn -0.31142369 0.94868330 -0.05491160
vn -0.31142369 0.94868330 -0.05491160
vn -0.31622777 0.94868330 0.00000000
vn -0.31622777 0.94868330 0.00000000
vn 0.29715711 0.94868330 0.10815569
vn 0.29715711 0.94868330 0.10815569
vn 0.31142369 0.94868330 0.05491160
vn 0.31142369 0.94868330 0.05491160
vn 0.00000000 1.00000000 -0.00000000
vn 0.00000000 1.00000000 -0.00000000
vn 0.00000000 1.00000000 -0.00000000
vn 0.00000000 1.00000000 -0.00000000
vn 0.00000000 1.00000000 -0.00000000
vn 0.00000000 1.00000000 -0.00000000
vn 0.00000000 1.00000000 -0.00000000
vn 0.00000000 1.00000000 -0.00000000
vn 0.00000000 1.00000000 -0.00000000
vn 0.00000000 1.00000000 -0.00000000
vn 0.00000000 1.00000000 -0.00000000
vn 0.00000000 1.00000000 -0.00000000
vn 0.00000000 1.00000000 -0.00000000
vn 0.00000000 1.00000000 -0.00000000
vn 0.00000000 1.00000000 -0.00000000
vn 0.00000000 1.00000000 -0.00000000
vn 0.00000000 1.00000000 -0.00000000
vn 0.00000000 1.00000000 -0.00000000
vn -0.31142817 0.94868330 0.05488622
vn -0.31142817 0.94868330 0.05488622
vn -0.29716414 0.94868330 0.10813637
vn -0.29716414 0.94868330 0.10813637
vn -0.27386926 0.94868330 0.15810006
vn -0.27386926 0.94868330 0.15810006
vn -0.24225128 0.94868330 0.20325924
vn -0.24225128 0.94868330 0.20325924
vn -0.20327120 0.94868330 0.24224124
vn -0.20327120 0.94868330 0.24224124
vn 0.00000000 1.00000000 0.00000000
vn 0.00000000 1.00000000 0.00000000
vn 0.00000000 1.00000000 0.00000000
vn 0.00000000 1.00000000 0.00000000
vn 0.00000000 1.00000000 0.00000000
s 1
usemtl Raceline_Red
f 4/4/4 3/3/3 2/2/2
f 78/125/115 77/127/117 97/124/114
f 77/127/117 76/129/119 98/126/116
f 76/129/119 75/131/121 99/128/118
f 75/131/121 74/133/123 100/130/120
f 74/133/123 73/135/125 101/132/122
f 73/135/125 72/137/127 102/134/124
f 59/147/135 107/146/134 106/145/133
f 106/145/133 70/140/130 69/144/132
f 105/143/131 65/141/129 70/140/130
f 72/137/127 65/139/129 104/138/128
f 72/137/127 104/138/128 103/136/126
f 72/137/127 103/136/126 102/134/124
f 73/135/125 102/134/124 101/132/122
f 74/133/123 101/132/122 100/130/120
f 75/131/121 100/130/120 99/128/118
f 76/129/119 99/128/118 98/126/116
f 77/127/117 98/126/116 97/124/114
f 78/125/115 97/124/114 96/122/112
f 79/123/113 96/122/112 95/120/110
f 80/121/111 95/120/110 94/118/108
f 81/119/109 94/118/108 93/116/106
f 82/117/107 93/116/106 92/114/104
f 83/115/105 92/114/104 91/112/102
f 84/113/103 91/112/102 90/110/100
f 85/111/101 90/110/100 89/109/99
f 89/109/99 66/107/97 86/106/96
f 67/151/137 66/150/97 88/149/98
f 68/153/139 67/151/137 108/148/136
f 48/155/48 49/154/49 68/153/139
f 105/143/131 104/142/128 65/141/129
f 106/145/133 105/143/131 70/140/130
f 69/144/132 59/147/135 106/145/133
f 6/6/6 5/5/5 4/4/4
f 1/1/1 6/6/6 4/4/4
f 4/4/4 2/2/2 1/1/1
f 44/46/44 42/44/42 41/43/41
f 46/48/46 45/47/45 44/46/44
f 11/50/11 10/49/10 45/47/45
f 9/9/9 11/11/11 12/12/12
f 13/13/13 14/14/14 9/9/9
f 15/15/15 16/16/16 14/14/14
f 17/17/17 18/18/18 16/16/16
f 19/19/19 20/20/20 18/18/18
f 21/21/21 22/22/22 20/20/20
f 23/23/23 24/24/24 22/22/22
f 23/23/23 26/26/26 24/24/24
f 25/25/25 28/28/28 26/26/26
f 27/27/27 30/30/30 28/28/28
f 29/29/29 32/32/32 30/30/30
f 31/31/31 34/34/34 32/32/32
f 33/33/33 36/36/36 34/34/34
f 35/35/35 38/38/38 36/36/36
f 37/37/37 40/40/40 38/38/38
f 39/39/39 8/42/8 40/40/40
f 8/8/8 7/7/7 5/5/5
f 6/6/6 8/8/8 5/5/5
f 39/39/39 7/41/7 8/42/8
f 37/37/37 39/39/39 40/40/40
f 35/35/35 37/37/37 38/38/38
f 33/33/33 35/35/35 36/36/36
f 31/31/31 33/33/33 34/34/34
f 29/29/29 31/31/31 32/32/32
f 27/27/27 29/29/29 30/30/30
f 25/25/25 27/27/27 28/28/28
f 23/23/23 25/25/25 26/26/26
f 21/21/21 23/23/23 22/22/22
f 19/19/19 21/21/21 20/20/20
f 17/17/17 19/19/19 18/18/18
f 15/15/15 17/17/17 16/16/16
f 13/13/13 15/15/15 14/14/14
f 12/12/12 13/13/13 9/9/9
f 9/9/9 10/10/10 11/11/11
f 46/48/46 11/50/11 45/47/45
f 41/43/41 46/48/46 44/46/44
f 44/46/44 43/45/43 42/44/42
f 109/152/138 48/155/48 68/153/139
f 68/153/139 108/148/136 109/152/138
f 67/151/137 88/149/98 108/148/136
f 89/109/99 88/108/98 66/107/97
f 86/106/96 85/111/101 89/109/99
f 85/111/101 84/113/103 90/110/100
f 84/113/103 83/115/105 91/112/102
f 83/115/105 82/117/107 92/114/104
f 82/117/107 81/119/109 93/116/106
f 81/119/109 80/121/111 94/118/108
f 80/121/111 79/123/113 95/120/110
f 79/123/113 78/125/115 96/122/112
usemtl Raceline_White
f 60/185/167 2/187/2 115/184/166
f 60/185/167 115/184/166 114/182/164
f 61/183/165 114/182/164 113/180/162
f 62/181/163 113/180/162 112/178/160
f 63/179/161 112/178/160 111/177/159
f 111/177/159 59/175/135 64/174/158
f 50/54/50 48/52/48 47/51/47
f 52/56/52 51/55/51 50/54/50
f 54/58/54 53/57/53 51/55/51
f 56/60/56 55/59/55 53/57/53
f 58/62/58 57/61/57 55/59/55
f 42/64/42 43/63/43 57/61/57
f 58/62/58 42/64/42 57/61/57
f 56/60/56 58/62/58 55/59/55
f 54/58/54 56/60/56 53/57/53
f 111/177/159 107/176/134 59/175/135
f 64/174/158 63/179/161 111/177/159
f 63/179/161 62/181/163 112/178/160
f 62/181/163 61/183/165 113/180/162
f 61/183/165 60/185/167 114/182/164
f 2/187/2 3/186/3 115/184/166
f 52/56/52 54/58/54 51/55/51
f 47/51/47 52/56/52 50/54/50
f 50/54/50 49/53/49 48/52/48
s 2
usemtl Raceline_Red
f 81/99/89 82/100/90 87/105/95
f 68/84/76 49/81/60 71/87/79
f 65/79/73 66/82/74 71/87/79
f 86/104/94 66/89/74 87/105/95
f 84/102/92 85/103/93 87/105/95
f 83/101/91 84/102/92 87/105/95
f 82/100/90 83/101/91 87/105/95
f 74/92/82 75/93/83 87/105/95
f 80/98/88 81/99/89 87/105/95
f 79/97/87 80/98/88 87/105/95
f 78/96/86 79/97/87 87/105/95
f 77/95/85 78/96/86 87/105/95
f 76/94/84 77/95/85 87/105/95
f 75/93/83 76/94/84 87/105/95
f 45/195/171 10/188/141 116/196/172
f 73/91/81 74/92/82 87/105/95
f 72/90/80 73/91/81 87/105/95
f 85/103/93 86/104/94 87/105/95
f 65/88/73 72/90/80 87/105/95
f 66/89/74 65/88/73 87/105/95
f 70/86/78 65/79/73 71/87/79
f 69/85/77 70/86/78 71/87/79
f 66/82/74 67/83/75 71/87/79
f 67/83/75 68/84/76 71/87/79
f 59/80/61 69/85/77 71/87/79
f 49/81/60 59/80/61 71/87/79
f 1/193/169 2/190/62 116/196/172
f 6/192/168 1/193/169 116/196/172
f 8/191/140 6/192/168 116/196/172
f 44/194/170 45/195/171 116/196/172
f 2/190/62 43/189/59 116/196/172
f 43/189/59 44/194/170 116/196/172
f 10/188/141 8/191/140 116/196/172
f 40/172/156 8/156/140 110/173/157
f 36/170/154 38/171/155 110/173/157
f 34/169/153 36/170/154 110/173/157
f 32/168/152 34/169/153 110/173/157
f 30/167/151 32/168/152 110/173/157
f 28/166/150 30/167/151 110/173/157
f 26/165/149 28/166/150 110/173/157
f 24/164/148 26/165/149 110/173/157
f 22/163/147 24/164/148 110/173/157
f 20/162/146 22/163/147 110/173/157
f 18/161/145 20/162/146 110/173/157
f 16/160/144 18/161/145 110/173/157
f 14/159/143 16/160/144 110/173/157
f 9/158/142 14/159/143 110/173/157
f 38/171/155 40/172/156 110/173/157
f 10/157/141 9/158/142 110/173/157
f 8/156/140 10/157/141 110/173/157
usemtl Raceline_White
f 64/73/67 59/67/61 49/66/60
f 63/72/66 64/73/67 50/74/68
f 62/71/65 63/72/66 51/75/69
f 61/70/64 62/71/65 53/76/70
f 60/69/63 61/70/64 55/77/71
f 60/69/63 57/78/72 43/65/59
f 60/69/63 55/77/71 57/78/72
f 43/65/59 2/68/62 60/69/63
f 61/70/64 53/76/70 55/77/71
f 62/71/65 51/75/69 53/76/70
f 63/72/66 50/74/68 51/75/69
f 64/73/67 49/66/60 50/74/68
