mtllib Track_Bridge.mtl
o object1
g object1
v -0.50000000 0.20000000 -0.22500000
v 0.50000000 0.20000000 -0.22500000
v 0.50000000 0.20000000 0.22500000
v -0.50000000 0.20000000 0.22500000
v -0.50000000 0.27500000 -0.22500000
v 0.50000000 0.27500000 -0.22500000
v -0.50000000 0.27500000 -0.20000000
v 0.50000000 0.27500000 -0.20000000
v -0.50000000 0.25000000 -0.20000000
v 0.50000000 0.25000000 -0.20000000
v -0.50000000 0.25000000 -0.18750000
v 0.50000000 0.25000000 -0.18750000
v -0.50000000 0.25000000 0.18750000
v 0.50000000 0.25000000 0.18750000
v -0.50000000 0.25000000 0.20000000
v 0.50000000 0.25000000 0.20000000
v -0.50000000 0.27500000 0.20000000
v 0.50000000 0.27500000 0.20000000
v -0.50000000 0.27500000 0.22500000
v 0.50000000 0.27500000 0.22500000
vt 1.00000000 1.00000000
vt 0.00000000 1.00000000
vt 0.00000000 0.00000000
vt 1.00000000 0.00000000
vt 1.00000000 1.00000000
vt 0.00000000 1.00000000
vt 0.00000000 0.00000000
vt 1.00000000 0.00000000
vt 1.00000000 1.00000000
vt 0.00000000 1.00000000
vt 0.00000000 0.00000000
vt 1.00000000 0.00000000
vt 1.00000000 1.00000000
vt 0.00000000 1.00000000
vt 0.00000000 0.00000000
vt 1.00000000 0.00000000
vt 1.00000000 1.00000000
vt 0.00000000 1.00000000
vt 0.00000000 0.00000000
vt 1.00000000 0.00000000
vt 1.00000000 1.00000000
vt 0.00000000 1.00000000
vt 0.00000000 0.00000000
vt 1.00000000 0.00000000
vt 1.00000000 1.00000000
vt 0.00000000 1.00000000
vt 0.00000000 0.00000000
vt 1.00000000 0.00000000
vt 1.00000000 1.00000000
vt 0.00000000 1.00000000
vt 0.00000000 0.00000000
vt 1.00000000 0.00000000
vt 1.00000000 1.00000000
vt 0.00000000 1.00000000
vt 0.00000000 0.00000000
vt 1.00000000 0.00000000
vt 1.00000000 0.94444444
vt 1.00000000 1.00000000
vt 0.00000000 1.00000000
vt 0.00000000 0.00000000
vt 1.00000000 0.00000000
vt 1.00000000 0.05555556
vt 0.66666667 0.05555556
vt 0.66666667 0.08333333
vt 0.66666667 0.91666667
vt 0.66666667 0.94444444
vt 1.00000000 1.00000000
vt 0.00000000 1.00000000
vt 0.00000000 0.00000000
vt 1.00000000 0.00000000
vt 1.00000000 0.94444444
vt 1.00000000 1.00000000
vt 0.00000000 1.00000000
vt 0.00000000 0.00000000
vt 1.00000000 0.00000000
vt 1.00000000 0.05555556
vt 0.66666667 0.05555556
vt 0.66666667 0.08333333
vt 0.66666667 0.91666667
vt 0.66666667 0.94444444
vn -0.00000000 -1.00000000 0.00000000
vn -0.00000000 -1.00000000 0.00000000
vn -0.00000000 -1.00000000 0.00000000
vn -0.00000000 -1.00000000 0.00000000
vn -0.00000000 0.00000000 -1.00000000
vn -0.00000000 -0.00000000 -1.00000000
vn -0.00000000 -0.00000000 -1.00000000
vn -0.00000000 0.00000000 -1.00000000
vn 0.00000000 1.00000000 -0.00000000
vn 0.00000000 1.00000000 -0.00000000
vn 0.00000000 1.00000000 -0.00000000
vn 0.00000000 1.00000000 -0.00000000
vn 0.00000000 0.00000000 1.00000000
vn 0.00000000 0.00000000 1.00000000
vn 0.00000000 0.00000000 1.00000000
vn 0.00000000 0.00000000 1.00000000
vn 0.00000000 1.00000000 -0.00000000
vn 0.00000000 1.00000000 -0.00000000
vn 0.00000000 1.00000000 -0.00000000
vn 0.00000000 1.00000000 -0.00000000
vn 0.00000000 1.00000000 -0.00000000
vn 0.00000000 1.00000000 -0.00000000
vn 0.00000000 1.00000000 -0.00000000
vn 0.00000000 1.00000000 -0.00000000
vn -0.00000000 -0.00000000 -1.00000000
vn -0.00000000 -0.00000000 -1.00000000
vn -0.00000000 -0.00000000 -1.00000000
vn -0.00000000 -0.00000000 -1.00000000
vn 0.00000000 1.00000000 0.00000000
vn 0.00000000 1.00000000 0.00000000
vn 0.00000000 1.00000000 0.00000000
vn 0.00000000 1.00000000 0.00000000
vn -1.00000000 0.00000000 0.00000000
vn -1.00000000 0.00000000 0.00000000
vn -1.00000000 0.00000000 0.00000000
vn -1.00000000 0.00000000 0.00000000
vn -1.00000000 0.00000000 0.00000000
vn -1.00000000 0.00000000 0.00000000
vn -1.00000000 0.00000000 0.00000000
vn -1.00000000 0.00000000 0.00000000
vn -1.00000000 0.00000000 0.00000000
vn -1.00000000 0.00000000 0.00000000
vn 0.00000000 0.00000000 1.00000000
vn 0.00000000 0.00000000 1.00000000
vn 0.00000000 0.00000000 1.00000000
vn 0.00000000 0.00000000 1.00000000
vn 1.00000000 -0.00000000 0.00000000
vn 1.00000000 -0.00000000 0.00000000
vn 1.00000000 -0.00000000 0.00000000
vn 1.00000000 -0.00000000 0.00000000
vn 1.00000000 -0.00000000 0.00000000
vn 1.00000000 -0.00000000 0.00000000
vn 1.00000000 -0.00000000 0.00000000
vn 1.00000000 -0.00000000 0.00000000
vn 1.00000000 -0.00000000 0.00000000
vn 1.00000000 -0.00000000 0.00000000
s 1
usemtl Cement
f 1/1/1 2/2/2 3/3/3
f 1/1/1 3/3/3 4/4/4
s 2
f 5/5/5 6/6/6 1/8/8
f 6/6/6 2/7/7 1/8/8
s 3
f 7/9/9 8/10/10 6/11/11
f 7/9/9 6/11/11 5/12/12
s 4
f 9/13/13 10/14/14 8/15/15
f 9/13/13 8/15/15 7/16/16
s 5
usemtl Asphault
f 13/21/21 14/22/22 12/23/18
f 13/21/21 12/23/18 11/24/17
usemtl Raceline_White
f 11/17/17 12/18/18 10/19/19
f 15/25/23 16/26/24 14/27/22
f 15/25/23 14/27/22 13/28/21
f 11/17/17 10/19/19 9/20/20
s 6
usemtl Cement
f 17/29/25 18/30/26 16/31/27
f 17/29/25 16/31/27 15/32/28
s 7
f 19/33/29 20/34/30 18/35/31
f 19/33/29 18/35/31 17/36/32
s 8
f 9/43/39 7/42/38 5/41/37
f 11/44/40 9/43/39 1/40/36
f 13/45/41 1/40/36 4/39/35
f 4/39/35 19/38/34 15/46/42
f 19/38/34 17/37/33 15/46/42
f 4/39/35 15/46/42 13/45/41
f 13/45/41 11/44/40 1/40/36
f 9/43/39 5/41/37 1/40/36
s 9
f 4/47/43 3/48/44 20/49/45
f 4/47/43 20/49/45 19/50/46
s 10
f 16/60/56 18/51/47 20/52/48
f 14/59/55 16/60/56 3/53/49
f 3/53/49 2/54/50 14/59/55
f 2/54/50 10/57/53 12/58/54
f 6/55/51 8/56/52 10/57/53
f 2/54/50 6/55/51 10/57/53
f 2/54/50 12/58/54 14/59/55
f 16/60/56 20/52/48 3/53/49
