mtllib Prop_Raceline_Straight.mtl
o object1
g object1
v -0.50193132 0.00329977 -0.21008953
v -0.50000000 0.00329977 -0.20989930
v -0.50000000 -0.00000000 -0.20000000
v -0.50386264 -0.00000000 -0.20038045
v -0.50757683 -0.00000000 -0.20150717
v -0.50378841 0.00329977 -0.21065289
v -0.51099979 -0.00000000 -0.20333685
v -0.50549990 0.00329977 -0.21156773
v -0.51399973 -0.00000000 -0.20579888
v -0.50699986 0.00329977 -0.21279874
v -0.51646222 -0.00000000 -0.20879951
v -0.50823111 0.00329977 -0.21429906
v -0.51829175 -0.00000000 -0.21222255
v -0.50914588 0.00329977 -0.21601058
v -0.51941832 -0.00000000 -0.21593678
v -0.50970916 0.00329977 -0.21786769
v -0.51979860 0.00000000 -0.21979860
v -0.50989930 0.00329977 -0.21979860
v -0.51941799 0.00000000 -0.22366207
v -0.50970899 0.00329977 -0.22173034
v -0.51829111 0.00000000 -0.22737621
v -0.50914555 0.00329977 -0.22358741
v -0.51646129 0.00000000 -0.23079909
v -0.50823064 0.00329977 -0.22529885
v -0.51399973 0.00000000 -0.23379833
v -0.50699986 0.00329977 -0.22679847
v -0.51099839 0.00000000 -0.23626129
v -0.50549920 0.00329977 -0.22802995
v -0.50757527 0.00000000 -0.23809067
v -0.50378764 0.00329977 -0.22894464
v -0.50386100 0.00000000 -0.23921708
v -0.50193050 0.00329977 -0.22950784
v -0.50000000 -0.00000000 -0.23959721
v -0.50000000 0.00329977 -0.22969790
v -0.45833333 -0.00000000 -0.20000000
v -0.45833333 0.00329977 -0.20989930
v -0.45833333 0.00329977 -0.22969790
v -0.37500000 0.00329977 -0.22969790
v -0.37500000 0.00329977 -0.20989930
v -0.29166667 0.00329977 -0.22969790
v -0.29166667 0.00329977 -0.20989930
v -0.20833333 0.00329977 -0.22969790
v -0.20833333 0.00329977 -0.20989930
v -0.12500000 0.00329977 -0.22969790
v -0.12500000 0.00329977 -0.20989930
v -0.04166667 0.00329977 -0.22969790
v -0.04166667 0.00329977 -0.20989930
v 0.04166667 0.00329977 -0.22969790
v 0.04166667 0.00329977 -0.20989930
v 0.12500000 0.00329977 -0.22969790
v 0.12500000 0.00329977 -0.20989930
v 0.20833333 0.00329977 -0.22969790
v 0.20833333 0.00329977 -0.20989930
v 0.29166667 0.00329977 -0.22969790
v 0.29166667 0.00329977 -0.20989930
v 0.37500000 0.00329977 -0.22969790
v 0.37500000 0.00329977 -0.20989930
v 0.45833333 0.00329977 -0.22969790
v 0.45833333 0.00329977 -0.20989930
v 0.50000000 0.00329977 -0.22969790
v 0.50000000 0.00329977 -0.20989930
v 0.50193132 0.00329977 -0.21008953
v 0.50378841 0.00329977 -0.21065289
v 0.50549990 0.00329977 -0.21156773
v 0.50699986 0.00329977 -0.21279874
v 0.50823111 0.00329977 -0.21429906
v 0.50914588 0.00329977 -0.21601058
v 0.50970916 0.00329977 -0.21786769
v 0.50989930 0.00329977 -0.21979860
v 0.50970899 0.00329977 -0.22173034
v 0.50914555 0.00329977 -0.22358741
v 0.50823064 0.00329977 -0.22529885
v 0.50699986 0.00329977 -0.22679847
v 0.50549920 0.00329977 -0.22802995
v 0.50378764 0.00329977 -0.22894464
v 0.50193050 0.00329977 -0.22950784
v 0.50591219 0.00329977 -0.21979879
v 0.50000000 -0.00000000 -0.20000000
v 0.50386264 -0.00000000 -0.20038045
v 0.50757683 -0.00000000 -0.20150717
v 0.51099979 -0.00000000 -0.20333685
v 0.51399973 -0.00000000 -0.20579888
v 0.51646222 -0.00000000 -0.20879951
v 0.51829175 -0.00000000 -0.21222255
v 0.51941832 -0.00000000 -0.21593678
v 0.51979860 0.00000000 -0.21979860
v 0.51941799 0.00000000 -0.22366207
v 0.51829111 0.00000000 -0.22737621
v 0.51646129 0.00000000 -0.23079909
v 0.51399973 0.00000000 -0.23379833
v 0.51099839 0.00000000 -0.23626129
v 0.50757527 0.00000000 -0.23809067
v 0.50386100 0.00000000 -0.23921708
v 0.50000000 -0.00000000 -0.23959721
v 0.45833333 -0.00000000 -0.20000000
v 0.45833333 -0.00000000 -0.23959721
v 0.37500000 -0.00000000 -0.20000000
v 0.37500000 -0.00000000 -0.23959721
v 0.29166667 -0.00000000 -0.20000000
v 0.29166667 -0.00000000 -0.23959721
v 0.20833333 -0.00000000 -0.20000000
v 0.20833333 -0.00000000 -0.23959721
v 0.12500000 -0.00000000 -0.20000000
v 0.12500000 -0.00000000 -0.23959721
v 0.04166667 -0.00000000 -0.20000000
v 0.04166667 -0.00000000 -0.23959721
v -0.04166667 -0.00000000 -0.20000000
v -0.04166667 -0.00000000 -0.23959721
v -0.12500000 -0.00000000 -0.20000000
v -0.12500000 -0.00000000 -0.23959721
v -0.20833333 -0.00000000 -0.20000000
v -0.20833333 -0.00000000 -0.23959721
v -0.29166667 -0.00000000 -0.20000000
v -0.29166667 -0.00000000 -0.23959721
v -0.37500000 -0.00000000 -0.20000000
v -0.37500000 -0.00000000 -0.23959721
v -0.45833333 -0.00000000 -0.23959721
v -0.50591219 0.00329977 -0.21979879
vt 0.06691347 1.00000000
vt 0.00000000 1.00000000
vt 0.00000000 0.00000000
vt 0.06691347 0.00000000
vt 0.12994488 0.00000000
vt 0.12994488 1.00000000
vt 0.19055415 0.00000000
vt 0.19055415 1.00000000
vt 0.24999250 0.00000000
vt 0.24999890 1.00000000
vt 0.30944378 0.00000000
vt 0.30944378 1.00000000
vt 0.37005343 0.00000000
vt 0.37005343 1.00000000
vt 0.43308551 0.00000000
vt 0.43308551 1.00000000
vt 0.49998500 0.00000000
vt 0.49999998 1.00000000
vt 0.56691245 0.00000000
vt 0.56691245 1.00000000
vt 0.62994319 0.00000000
vt 0.62994319 1.00000000
vt 0.69055208 0.00000000
vt 0.69055208 1.00000000
vt 0.74997750 0.00000000
vt 0.74999671 1.00000000
vt 0.80944171 0.00000000
vt 0.80944171 1.00000000
vt 0.87005174 0.00000000
vt 0.87005174 1.00000000
vt 0.93308448 0.00000000
vt 0.93308448 1.00000000
vt 0.99997000 0.00000000
vt 0.99997000 1.00000000
vt 1.00000000 1.00000000
vt 0.00000000 1.00000000
vt 0.00000000 0.00000000
vt 1.00000000 0.00000000
vt 1.00000000 1.00000000
vt 0.00000000 1.00000000
vt 0.00000000 0.00000000
vt 1.00000000 0.00000000
vt 0.00000000 0.00000000
vt 1.00000000 0.00000000
vt 1.00000000 1.00000000
vt 0.00000000 1.00000000
vt 0.00000000 0.00000000
vt 1.00000000 0.00000000
vt 1.00000000 1.00000000
vt 0.00000000 1.00000000
vt 0.00000000 0.00000000
vt 1.00000000 0.00000000
vt 1.00000000 1.00000000
vt 0.00000000 1.00000000
vt 0.00000000 0.00000000
vt 1.00000000 0.00000000
vt 1.00000000 1.00000000
vt 0.00000000 1.00000000
vt 0.00000000 0.00000000
vt 1.00000000 0.00000000
vt 1.00000000 1.00000000
vt 0.00000000 1.00000000
vt 0.00000000 0.00000000
vt 1.00000000 0.00000000
vt 1.00000000 1.00000000
vt 0.00000000 1.00000000
vt 0.00000000 0.00000000
vt 1.00000000 0.00000000
vt 1.00000000 1.00000000
vt 0.00000000 1.00000000
vt 0.00000000 0.00000000
vt 1.00000000 0.00000000
vt 1.00000000 1.00000000
vt 0.00000000 1.00000000
vt 0.00000000 0.00000000
vt 1.00000000 0.00000000
vt 1.00000000 1.00000000
vt 0.00000000 1.00000000
vt 0.00000000 0.00000000
vt 1.00000000 0.00000000
vt 1.00000000 1.00000000
vt 0.00000000 1.00000000
vt 0.00000000 0.00000000
vt 1.00000000 0.00000000
vt 1.00000000 1.00000000
vt 0.00000000 1.00000000
vt 0.00000000 0.00000000
vt 1.00000000 0.00000000
vt 1.00000000 1.00000000
vt 0.00000000 1.00000000
vt 0.00000000 1.00000000
vt 0.00000000 0.00000000
vt 0.19509446 0.00960777
vt 0.38269229 0.03806207
vt 0.55558304 0.08426947
vt 0.70710678 0.14644661
vt 0.83148463 0.22222612
vt 0.92389210 0.30867346
vt 0.98079273 0.40247357
vt 1.00000000 0.50000000
vt 0.98077618 0.59756803
vt 0.92385963 0.69136574
vt 0.83143748 0.77780916
vt 0.70710678 0.85355339
vt 0.55551248 0.91575410
vt 0.38261389 0.96195417
vt 0.19501128 0.99040050
vt 0.59723316 0.50000966
vt 0.06691347 1.00000000
vt 0.00000000 1.00000000
vt 0.00000000 0.00000000
vt 0.06691347 0.00000000
vt 0.12994488 0.00000000
vt 0.12994488 1.00000000
vt 0.19055415 0.00000000
vt 0.19055415 1.00000000
vt 0.24999250 0.00000000
vt 0.24999890 1.00000000
vt 0.30944378 0.00000000
vt 0.30944378 1.00000000
vt 0.37005343 0.00000000
vt 0.37005343 1.00000000
vt 0.43308551 0.00000000
vt 0.43308551 1.00000000
vt 0.49998500 0.00000000
vt 0.49999998 1.00000000
vt 0.56691245 0.00000000
vt 0.56691245 1.00000000
vt 0.62994319 0.00000000
vt 0.62994319 1.00000000
vt 0.69055208 0.00000000
vt 0.69055208 1.00000000
vt 0.74997750 0.00000000
vt 0.74999671 1.00000000
vt 0.80944171 0.00000000
vt 0.80944171 1.00000000
vt 0.87005174 0.00000000
vt 0.87005174 1.00000000
vt 0.93308448 0.00000000
vt 0.93308448 1.00000000
vt 0.99997000 0.00000000
vt 0.99997000 1.00000000
vt 0.00000000 0.00000000
vt 1.00000000 0.00000000
vt 1.00000000 1.00000000
vt 0.00000000 1.00000000
vt 0.00000000 0.00000000
vt 1.00000000 0.00000000
vt 1.00000000 1.00000000
vt 0.00000000 1.00000000
vt 0.00000000 0.00000000
vt 1.00000000 0.00000000
vt 1.00000000 1.00000000
vt 0.00000000 1.00000000
vt 0.00000000 0.00000000
vt 1.00000000 0.00000000
vt 1.00000000 1.00000000
vt 0.00000000 1.00000000
vt 0.00000000 0.00000000
vt 1.00000000 0.00000000
vt 1.00000000 1.00000000
vt 0.00000000 1.00000000
vt 0.00000000 0.00000000
vt 1.00000000 0.00000000
vt 1.00000000 1.00000000
vt 0.00000000 1.00000000
vt 0.00000000 0.00000000
vt 1.00000000 0.00000000
vt 1.00000000 1.00000000
vt 0.00000000 1.00000000
vt 0.00000000 0.00000000
vt 1.00000000 0.00000000
vt 1.00000000 1.00000000
vt 0.00000000 1.00000000
vt 0.00000000 0.00000000
vt 1.00000000 0.00000000
vt 1.00000000 1.00000000
vt 0.00000000 1.00000000
vt 0.00000000 0.00000000
vt 1.00000000 0.00000000
vt 1.00000000 1.00000000
vt 0.00000000 1.00000000
vt 0.00000000 0.00000000
vt 1.00000000 0.00000000
vt 1.00000000 1.00000000
vt 0.00000000 1.00000000
vt 0.00000000 0.00000000
vt 1.00000000 0.00000000
vt 1.00000000 1.00000000
vt 0.00000000 1.00000000
vt 0.00000000 0.00000000
vt 1.00000000 0.00000000
vt 1.00000000 1.00000000
vt 0.00000000 1.00000000
vt 0.00000000 0.00000000
vt 1.00000000 0.00000000
vt 1.00000000 1.00000000
vt 0.00000000 1.00000000
vt 0.00000000 0.00000000
vt 1.00000000 0.00000000
vt 1.00000000 1.00000000
vt 0.00000000 1.00000000
vt 0.00000000 0.00000000
vt 1.00000000 0.00000000
vt 1.00000000 1.00000000
vt 0.00000000 1.00000000
vt 0.00000000 0.00000000
vt 1.00000000 0.00000000
vt 1.00000000 1.00000000
vt 0.00000000 1.00000000
vt 0.00000000 0.00000000
vt 1.00000000 0.00000000
vt 1.00000000 1.00000000
vt 0.00000000 1.00000000
vt 0.00000000 0.00000000
vt 1.00000000 0.00000000
vt 1.00000000 1.00000000
vt 0.00000000 1.00000000
vt 0.00000000 0.00000000
vt 1.00000000 0.00000000
vt 1.00000000 1.00000000
vt 0.00000000 1.00000000
vt 0.00000000 0.00000000
vt 1.00000000 0.00000000
vt 1.00000000 1.00000000
vt 0.00000000 1.00000000
vt 0.00000000 0.00000000
vt 1.00000000 0.00000000
vt 1.00000000 1.00000000
vt 0.00000000 1.00000000
vt 0.00000000 0.00000000
vt 1.00000000 0.00000000
vt 1.00000000 1.00000000
vt 0.00000000 1.00000000
vt 0.00000000 0.00000000
vt 1.00000000 0.00000000
vt 1.00000000 1.00000000
vt 0.00000000 1.00000000
vt 0.00000000 1.00000000
vt 0.00000000 0.00000000
vt 0.19501128 0.99040050
vt 0.38261389 0.96195417
vt 0.55551248 0.91575410
vt 0.70710678 0.85355339
vt 0.83143748 0.77780916
vt 0.92385963 0.69136574
vt 0.98077618 0.59756803
vt 1.00000000 0.50000000
vt 0.98079273 0.40247357
vt 0.92389210 0.30867346
vt 0.83148463 0.22222612
vt 0.70710678 0.14644661
vt 0.55558304 0.08426947
vt 0.38269229 0.03806207
vt 0.19509446 0.00960777
vt 0.59723316 0.50000966
vt 1.00000000 1.00000000
vt 0.00000000 1.00000000
vt 0.00000000 0.00000000
vt 1.00000000 0.00000000
vn -0.06169429 0.94868330 0.31015128
vn 0.00000000 0.94868330 0.31622777
vn -0.00000000 0.94868330 0.31622777
vn -0.06169429 0.94868330 0.31015128
vn -0.12101793 0.94868330 0.29215520
vn -0.12101793 0.94868330 0.29215520
vn -0.17569078 0.94868330 0.26293108
vn -0.17569078 0.94868330 0.26293108
vn -0.22360680 0.94868330 0.22360680
vn -0.22361154 0.94868330 0.22360205
vn -0.26293853 0.94868330 0.17567962
vn -0.26293853 0.94868330 0.17567962
vn -0.29216033 0.94868330 0.12100554
vn -0.29216033 0.94868330 0.12100554
vn -0.31015389 0.94868330 0.06168114
vn -0.31015389 0.94868330 0.06168114
vn -0.31622777 0.94868330 0.00000000
vn -0.31622777 0.94868330 -0.00001340
vn -0.31014866 0.94868330 -0.06170744
vn -0.31014866 0.94868330 -0.06170744
vn -0.29215006 0.94868330 -0.12103033
vn -0.29215006 0.94868330 -0.12103033
vn -0.26292362 0.94868330 -0.17570193
vn -0.26292362 0.94868330 -0.17570193
vn -0.22360680 0.94868330 -0.22360680
vn -0.22359257 0.94868330 -0.22362103
vn -0.17566847 0.94868330 -0.26294598
vn -0.17566847 0.94868330 -0.26294598
vn -0.12099314 0.94868330 -0.29216547
vn -0.12099314 0.94868330 -0.29216547
vn -0.06166798 0.94868330 -0.31015651
vn -0.06166798 0.94868330 -0.31015651
vn 0.00000000 0.94868330 -0.31622777
vn 0.00000000 0.94868330 -0.31622777
vn 0.00000000 0.94868330 0.31622777
vn 0.00000000 0.94868330 0.31622777
vn 0.00000000 1.00000000 0.00000000
vn 0.00000000 1.00000000 0.00000000
vn 0.00000000 1.00000000 0.00000000
vn 0.00000000 1.00000000 0.00000000
vn 0.00000000 1.00000000 0.00000000
vn 0.00000000 1.00000000 0.00000000
vn 0.00000000 1.00000000 0.00000000
vn 0.00000000 1.00000000 0.00000000
vn 0.00000000 1.00000000 0.00000000
vn 0.00000000 1.00000000 0.00000000
vn 0.00000000 1.00000000 0.00000000
vn 0.00000000 1.00000000 0.00000000
vn 0.00000000 1.00000000 0.00000000
vn 0.00000000 1.00000000 0.00000000
vn 0.00000000 1.00000000 0.00000000
vn 0.00000000 1.00000000 0.00000000
vn 0.00000000 1.00000000 0.00000000
vn 0.00000000 1.00000000 0.00000000
vn 0.00000000 1.00000000 0.00000000
vn 0.00000000 1.00000000 0.00000000
vn 0.00000000 1.00000000 0.00000000
vn 0.00000000 1.00000000 0.00000000
vn -0.00000000 1.00000000 0.00000000
vn 0.00000000 1.00000000 0.00000000
vn 0.00000000 1.00000000 0.00000000
vn 0.00000000 1.00000000 0.00000000
vn 0.00000000 1.00000000 0.00000000
vn 0.00000000 1.00000000 0.00000000
vn -0.00000000 1.00000000 0.00000000
vn -0.00000000 1.00000000 0.00000000
vn -0.00000000 1.00000000 0.00000000
vn -0.00000000 1.00000000 0.00000000
vn -0.00000000 1.00000000 0.00000000
vn -0.00000000 1.00000000 0.00000000
vn -0.00000000 1.00000000 0.00000000
vn -0.00000000 1.00000000 0.00000000
vn -0.00000000 1.00000000 0.00000000
vn -0.00000000 1.00000000 0.00000000
vn -0.00000000 1.00000000 0.00000000
vn -0.00000000 1.00000000 0.00000000
vn -0.00000000 1.00000000 0.00000000
vn -0.00000000 1.00000000 0.00000000
vn -0.00000000 1.00000000 0.00000000
vn -0.00000000 1.00000000 0.00000000
vn 0.06169429 0.94868330 0.31015128
vn -0.00000000 0.94868330 0.31622777
vn 0.00000000 0.94868330 0.31622777
vn 0.06169429 0.94868330 0.31015128
vn 0.12101793 0.94868330 0.29215520
vn 0.12101793 0.94868330 0.29215520
vn 0.17569078 0.94868330 0.26293108
vn 0.17569078 0.94868330 0.26293108
vn 0.22360680 0.94868330 0.22360680
vn 0.22361154 0.94868330 0.22360205
vn 0.26293853 0.94868330 0.17567962
vn 0.26293853 0.94868330 0.17567962
vn 0.29216033 0.94868330 0.12100554
vn 0.29216033 0.94868330 0.12100554
vn 0.31015389 0.94868330 0.06168114
vn 0.31015389 0.94868330 0.06168114
vn 0.31622777 0.94868330 -0.00000000
vn 0.31622777 0.94868330 -0.00001340
vn 0.31014866 0.94868330 -0.06170744
vn 0.31014866 0.94868330 -0.06170744
vn 0.29215006 0.94868330 -0.12103033
vn 0.29215006 0.94868330 -0.12103033
vn 0.26292362 0.94868330 -0.17570193
vn 0.26292362 0.94868330 -0.17570193
vn 0.22360680 0.94868330 -0.22360680
vn 0.22359257 0.94868330 -0.22362103
vn 0.17566847 0.94868330 -0.26294598
vn 0.17566847 0.94868330 -0.26294598
vn 0.12099314 0.94868330 -0.29216547
vn 0.12099314 0.94868330 -0.29216547
vn 0.06166798 0.94868330 -0.31015651
vn 0.06166798 0.94868330 -0.31015651
vn -0.00000000 0.94868330 -0.31622777
vn 0.00000000 0.94868330 -0.31622777
vn 0.00000000 0.94868330 0.31622777
vn 0.00000000 0.94868330 0.31622777
vn 0.00000000 0.94868330 -0.31622777
vn 0.00000000 0.94868330 -0.31622777
vn 0.00000000 0.94868330 0.31622777
vn 0.00000000 0.94868330 0.31622777
vn 0.00000000 0.94868330 -0.31622777
vn 0.00000000 0.94868330 -0.31622777
vn 0.00000000 0.94868330 0.31622777
vn 0.00000000 0.94868330 0.31622777
vn 0.00000000 0.94868330 -0.31622777
vn 0.00000000 0.94868330 -0.31622777
vn 0.00000000 0.94868330 0.31622777
vn 0.00000000 0.94868330 0.31622777
vn -0.00000000 0.94868330 -0.31622777
vn 0.00000000 0.94868330 -0.31622777
vn 0.00000000 0.94868330 0.31622777
vn 0.00000000 0.94868330 0.31622777
vn 0.00000000 0.94868330 -0.31622777
vn 0.00000000 0.94868330 -0.31622777
vn 0.00000000 0.94868330 0.31622777
vn 0.00000000 0.94868330 0.31622777
vn 0.00000000 0.94868330 -0.31622777
vn 0.00000000 0.94868330 -0.31622777
vn 0.00000000 0.94868330 0.31622777
vn 0.00000000 0.94868330 0.31622777
vn -0.00000000 0.94868330 -0.31622777
vn 0.00000000 0.94868330 -0.31622777
vn 0.00000000 0.94868330 0.31622777
vn 0.00000000 0.94868330 0.31622777
vn 0.00000000 0.94868330 -0.31622777
vn 0.00000000 0.94868330 -0.31622777
vn 0.00000000 0.94868330 0.31622777
vn 0.00000000 0.94868330 0.31622777
vn 0.00000000 0.94868330 -0.31622777
vn 0.00000000 0.94868330 -0.31622777
vn 0.00000000 0.94868330 0.31622777
vn 0.00000000 0.94868330 0.31622777
vn 0.00000000 0.94868330 -0.31622777
vn 0.00000000 0.94868330 -0.31622777
vn 0.00000000 0.94868330 0.31622777
vn 0.00000000 0.94868330 0.31622777
vn 0.00000000 0.94868330 -0.31622777
vn 0.00000000 0.94868330 -0.31622777
vn 0.00000000 0.94868330 -0.31622777
vn 0.00000000 0.94868330 -0.31622777
vn 0.00000000 1.00000000 0.00000000
vn 0.00000000 1.00000000 0.00000000
vn 0.00000000 1.00000000 0.00000000
vn 0.00000000 1.00000000 0.00000000
vn 0.00000000 1.00000000 0.00000000
vn 0.00000000 1.00000000 0.00000000
vn 0.00000000 1.00000000 0.00000000
vn 0.00000000 1.00000000 0.00000000
vn 0.00000000 1.00000000 0.00000000
vn 0.00000000 1.00000000 0.00000000
vn 0.00000000 1.00000000 0.00000000
vn 0.00000000 1.00000000 0.00000000
vn 0.00000000 1.00000000 0.00000000
vn 0.00000000 1.00000000 0.00000000
vn 0.00000000 1.00000000 0.00000000
vn 0.00000000 1.00000000 0.00000000
s 1
usemtl Raceline_Red
f 4/4/4 3/3/3 2/2/2
f 3/35/3 36/37/36 2/38/2
f 79/112/84 63/114/86 62/109/81
f 39/224/155 115/225/156 113/226/152
f 62/109/81 61/110/82 78/111/83
f 43/208/147 111/209/148 109/210/144
f 61/143/82 59/144/115 78/146/83
f 47/192/139 107/193/140 105/194/136
f 4/4/4 2/2/2 1/1/1
f 51/176/131 103/177/132 101/178/128
f 57/159/119 55/160/123 97/162/120
f 55/160/123 99/161/124 97/162/120
f 53/175/127 51/176/131 101/178/128
f 59/144/115 95/145/116 78/146/83
f 62/109/81 78/111/83 79/112/84
f 79/112/84 80/113/85 63/114/86
f 80/113/85 64/116/88 63/114/86
f 81/115/87 65/118/90 64/116/88
f 82/117/89 66/120/92 65/118/90
f 83/119/91 67/122/94 66/120/92
f 84/121/93 68/124/96 67/122/94
f 86/125/97 69/126/98 68/124/96
f 87/127/99 70/128/100 69/126/98
f 88/129/101 71/130/102 70/128/100
f 89/131/103 72/132/104 71/130/102
f 90/133/105 73/134/106 72/132/104
f 91/135/107 74/136/108 73/134/106
f 92/137/109 75/138/110 74/136/108
f 93/139/111 76/140/112 75/138/110
f 94/141/113 60/142/114 76/140/112
f 96/148/117 58/149/118 60/150/114
f 49/191/135 47/192/139 105/194/136
f 100/164/125 54/165/126 56/166/122
f 45/207/143 43/208/147 109/210/144
f 104/180/133 50/181/134 52/182/130
f 41/223/151 39/224/155 113/226/152
f 108/196/141 46/197/142 48/198/138
f 3/35/3 35/36/35 36/37/36
f 112/212/149 42/213/150 44/214/146
f 6/6/6 5/5/5 4/4/4
f 116/228/157 38/229/158 40/230/154
f 1/1/1 6/6/6 4/4/4
f 34/257/34 117/259/159 33/260/33
f 32/32/32 33/33/33 31/31/31
f 30/30/30 31/31/31 29/29/29
f 28/28/28 29/29/29 27/27/27
f 26/26/26 27/27/27 25/25/25
f 24/24/24 25/25/25 23/23/23
f 22/22/22 23/23/23 21/21/21
f 20/20/20 21/21/21 19/19/19
f 20/20/20 19/19/19 17/17/17
f 18/18/18 17/17/17 15/15/15
f 16/16/16 15/15/15 13/13/13
f 14/14/14 13/13/13 11/11/11
f 12/12/12 11/11/11 9/9/9
f 10/10/10 9/9/9 7/7/7
f 8/8/8 7/7/7 5/5/5
f 6/6/6 8/8/8 5/5/5
f 8/8/8 10/10/10 7/7/7
f 10/10/10 12/12/12 9/9/9
f 12/12/12 14/14/14 11/11/11
f 14/14/14 16/16/16 13/13/13
f 16/16/16 18/18/18 15/15/15
f 18/18/18 20/20/20 17/17/17
f 20/20/20 22/22/22 21/21/21
f 22/22/22 24/24/24 23/23/23
f 24/24/24 26/26/26 25/25/25
f 26/26/26 28/28/28 27/27/27
f 28/28/28 30/30/30 29/29/29
f 30/30/30 32/32/32 31/31/31
f 32/32/32 34/34/34 33/33/33
f 34/257/34 37/258/160 117/259/159
f 114/227/153 116/228/157 40/230/154
f 110/211/145 112/212/149 44/214/146
f 106/195/137 108/196/141 48/198/138
f 102/179/129 104/180/133 52/182/130
f 98/163/121 100/164/125 56/166/122
f 94/147/113 96/148/117 60/150/114
f 93/139/111 94/141/113 76/140/112
f 92/137/109 93/139/111 75/138/110
f 91/135/107 92/137/109 74/136/108
f 90/133/105 91/135/107 73/134/106
f 89/131/103 90/133/105 72/132/104
f 88/129/101 89/131/103 71/130/102
f 87/127/99 88/129/101 70/128/100
f 86/125/97 87/127/99 69/126/98
f 85/123/95 86/125/97 68/124/96
f 84/121/93 85/123/95 68/124/96
f 83/119/91 84/121/93 67/122/94
f 82/117/89 83/119/91 66/120/92
f 81/115/87 82/117/89 65/118/90
f 80/113/85 81/115/87 64/116/88
usemtl Raceline_White
f 36/236/36 35/237/35 115/238/156
f 41/216/151 113/217/152 111/218/148
f 45/200/143 109/201/144 107/202/140
f 49/184/135 105/185/136 103/186/132
f 53/168/127 101/169/128 99/170/124
f 57/152/119 97/153/120 95/154/116
f 98/156/121 56/157/122 58/158/118
f 102/172/129 52/173/130 54/174/126
f 106/188/137 48/189/138 50/190/134
f 110/204/145 44/205/146 46/206/142
f 114/220/153 40/221/154 42/222/150
f 117/232/159 37/233/160 38/234/158
f 116/231/157 117/232/159 38/234/158
f 51/183/131 49/184/135 103/186/132
f 100/171/125 102/172/129 54/174/126
f 47/199/139 45/200/143 107/202/140
f 108/203/141 110/204/145 46/206/142
f 43/215/147 41/216/151 111/218/148
f 96/155/117 98/156/121 58/158/118
f 39/235/155 36/236/36 115/238/156
f 112/219/149 114/220/153 42/222/150
f 104/187/133 106/188/137 50/190/134
f 55/167/123 53/168/127 99/170/124
f 59/151/115 57/152/119 95/154/116
s 2
usemtl Raceline_Red
f 2/39/37 36/40/38 37/41/39
f 30/242/162 28/243/163 118/256/176
f 38/48/41 39/49/42 41/50/44
f 32/241/161 30/242/162 118/256/176
f 42/56/45 43/57/46 45/58/48
f 34/239/40 32/241/161 118/256/176
f 46/64/49 47/65/50 49/66/52
f 76/107/79 60/91/63 77/108/80
f 50/72/53 51/73/54 53/74/56
f 6/254/174 1/255/175 118/256/176
f 54/80/57 55/81/58 57/82/60
f 2/240/37 34/239/40 118/256/176
f 58/88/61 59/89/62 61/90/64
f 61/92/64 62/93/65 77/108/80
f 2/39/37 37/41/39 34/42/40
f 75/106/78 76/107/79 77/108/80
f 74/105/77 75/106/78 77/108/80
f 73/104/76 74/105/77 77/108/80
f 72/103/75 73/104/76 77/108/80
f 71/102/74 72/103/75 77/108/80
f 70/101/73 71/102/74 77/108/80
f 69/100/72 70/101/73 77/108/80
f 68/99/71 69/100/72 77/108/80
f 67/98/70 68/99/71 77/108/80
f 66/97/69 67/98/70 77/108/80
f 65/96/68 66/97/69 77/108/80
f 64/95/67 65/96/68 77/108/80
f 63/94/66 64/95/67 77/108/80
f 62/93/65 63/94/66 77/108/80
f 60/91/63 61/92/64 77/108/80
f 60/87/63 58/88/61 61/90/64
f 56/79/59 54/80/57 57/82/60
f 52/71/55 50/72/53 53/74/56
f 48/63/51 46/64/49 49/66/52
f 44/55/47 42/56/45 45/58/48
f 40/47/43 38/48/41 41/50/44
f 1/255/175 2/240/37 118/256/176
f 8/253/173 6/254/174 118/256/176
f 10/252/172 8/253/173 118/256/176
f 12/251/171 10/252/172 118/256/176
f 14/250/170 12/251/171 118/256/176
f 16/249/169 14/250/170 118/256/176
f 18/248/168 16/249/169 118/256/176
f 20/247/167 18/248/168 118/256/176
f 22/246/166 20/247/167 118/256/176
f 24/245/165 22/246/166 118/256/176
f 26/244/164 24/245/165 118/256/176
f 28/243/163 26/244/164 118/256/176
usemtl Raceline_White
f 38/43/41 37/44/39 39/46/42
f 40/52/43 41/53/44 43/54/46
f 44/60/47 45/61/48 47/62/50
f 52/76/55 53/77/56 55/78/58
f 56/84/59 57/85/60 59/86/62
f 48/68/51 49/69/52 51/70/54
f 54/75/57 52/76/55 55/78/58
f 46/59/49 44/60/47 47/62/50
f 58/83/61 56/84/59 59/86/62
f 42/51/45 40/52/43 43/54/46
f 50/67/53 48/68/51 51/70/54
f 37/44/39 36/45/38 39/46/42
