mtllib Terrain_Grass_Flat.mtl
o object1
g object1
v -0.00000000 -0.03750000 0.57735027
v -0.50000000 -0.03750000 0.28867513
v -0.50000000 -0.03750000 -0.28867513
v -0.00000000 -0.03750000 -0.57735027
v 0.50000000 -0.03750000 -0.28867513
v 0.50000000 -0.03750000 0.28867513
v -0.00000000 -0.03750000 -0.00000000
v -0.00000000 0.02500000 -0.57735027
v -0.50000000 0.02500000 -0.28867513
v -0.00000000 0.02500000 0.57735027
v -0.50000000 0.02500000 0.28867513
v 0.50000000 0.02500000 -0.28867513
v 0.50000000 0.02500000 0.28867513
v -0.00000000 0.02500000 -0.00000000
vt 0.50000000 0.00000000
vt 1.00000000 0.25000000
vt 1.00000000 0.75000000
vt 0.50000000 1.00000000
vt 0.00000000 0.75000000
vt 0.00000000 0.25000000
vt 0.50000000 0.50000000
vt 1.00000000 1.00000000
vt 0.00000000 1.00000000
vt 0.00000000 0.00000000
vt 1.00000000 0.00000000
vt 0.50000000 0.00000000
vt 1.00000000 0.25000000
vt 1.00000000 0.75000000
vt 0.50000000 1.00000000
vt 0.00000000 0.75000000
vt 0.00000000 0.25000000
vt 0.50000000 0.50000000
vt 1.00000000 1.00000000
vt 0.00000000 1.00000000
vt 0.00000000 0.00000000
vt 1.00000000 0.00000000
vt 1.00000000 1.00000000
vt 0.00000000 1.00000000
vt 0.00000000 0.00000000
vt 1.00000000 0.00000000
vt 1.00000000 1.00000000
vt 0.00000000 1.00000000
vt 0.00000000 0.00000000
vt 1.00000000 0.00000000
vt 1.00000000 1.00000000
vt 0.00000000 1.00000000
vt 0.00000000 0.00000000
vt 1.00000000 0.00000000
vt 1.00000000 1.00000000
vt 0.00000000 1.00000000
vt 0.00000000 0.00000000
vt 1.00000000 0.00000000
vn -0.00000000 -1.00000000 -0.00000000
vn -0.00000000 -1.00000000 -0.00000000
vn -0.00000000 -1.00000000 -0.00000000
vn -0.00000000 -1.00000000 -0.00000000
vn -0.00000000 -1.00000000 -0.00000000
vn -0.00000000 -1.00000000 -0.00000000
vn -0.00000000 -1.00000000 -0.00000000
vn -0.50000000 0.00000000 -0.86602540
vn -0.50000000 0.00000000 -0.86602540
vn -0.50000000 0.00000000 -0.86602540
vn -0.50000000 0.00000000 -0.86602540
vn 0.00000000 1.00000000 0.00000000
vn 0.00000000 1.00000000 0.00000000
vn 0.00000000 1.00000000 0.00000000
vn 0.00000000 1.00000000 0.00000000
vn 0.00000000 1.00000000 0.00000000
vn 0.00000000 1.00000000 0.00000000
vn 0.00000000 1.00000000 0.00000000
vn 0.50000000 0.00000000 -0.86602540
vn 0.50000000 0.00000000 -0.86602540
vn 0.50000000 0.00000000 -0.86602540
vn 0.50000000 0.00000000 -0.86602540
vn 1.00000000 0.00000000 -0.00000000
vn 1.00000000 0.00000000 -0.00000000
vn 1.00000000 0.00000000 -0.00000000
vn 1.00000000 0.00000000 -0.00000000
vn 0.50000000 -0.00000000 0.86602540
vn 0.50000000 -0.00000000 0.86602540
vn 0.50000000 0.00000000 0.86602540
vn 0.50000000 0.00000000 0.86602540
vn -0.50000000 -0.00000000 0.86602540
vn -0.50000000 -0.00000000 0.86602540
vn -0.50000000 -0.00000000 0.86602540
vn -0.50000000 -0.00000000 0.86602540
vn -1.00000000 0.00000000 -0.00000000
vn -1.00000000 0.00000000 -0.00000000
vn -1.00000000 0.00000000 -0.00000000
vn -1.00000000 0.00000000 -0.00000000
s 1
usemtl Hidden
f 1/1/1 2/2/2 7/7/7
f 5/5/5 6/6/6 7/7/7
f 4/4/4 5/5/5 7/7/7
f 3/3/3 4/4/4 7/7/7
f 2/2/2 3/3/3 7/7/7
f 6/6/6 1/1/1 7/7/7
s 2
f 8/8/8 4/9/9 9/11/11
f 4/9/9 3/10/10 9/11/11
s 3
usemtl Grass
f 13/17/17 12/16/16 14/18/18
f 11/13/13 10/12/12 14/18/18
f 9/14/14 11/13/13 14/18/18
f 8/15/15 9/14/14 14/18/18
f 12/16/16 8/15/15 14/18/18
f 10/12/12 13/17/17 14/18/18
s 4
usemtl Hidden
f 12/19/19 5/20/20 8/22/22
f 5/20/20 4/21/21 8/22/22
s 5
f 13/23/23 6/24/24 12/26/26
f 6/24/24 5/25/25 12/26/26
s 6
f 10/27/27 1/28/28 13/30/30
f 1/28/28 6/29/29 13/30/30
s 7
f 11/31/31 2/32/32 1/33/33
f 11/31/31 1/33/33 10/34/34
s 8
f 9/35/35 3/36/36 11/38/38
f 3/36/36 2/37/37 11/38/38
